<svg width="563" height="518" viewBox="0 0 563 518" fill="none" xmlns="http://www.w3.org/2000/svg">
<g opacity="0.45" clip-path="url(#clip0_145_2814)">
<path d="M381.714 510.111C380.392 505.719 379.135 501.156 378.9 499.984C378.474 497.702 365.495 471.818 362.682 467.639C361.765 466.275 358.377 464.484 355.159 463.673L349.319 462.202V479.494C349.319 492.265 348.594 496.785 346.548 496.785C343.735 496.785 340.943 490.346 336.383 473.332C334.976 468.066 333.399 464.931 332.866 466.403C330.841 472.074 326.323 468.641 323.744 459.473C322.274 454.207 319.802 449.879 318.289 449.879C316.69 449.879 315.198 446.894 314.836 442.949C314.175 436.276 313.856 436.041 305.629 436.681C297.871 437.278 268.013 445.359 255.972 450.092C252.903 451.307 249.535 451.222 247.084 449.9C244.889 448.749 237.046 447.853 229.608 447.938C184.405 448.471 177.926 447.896 174.154 442.907C171.597 439.516 168.208 438.109 162.432 437.981C157.978 437.896 150.284 435.743 145.34 433.184C140.417 430.647 133.938 428.557 130.954 428.557C127.992 428.557 125.541 427.598 125.541 426.425C125.541 425.253 124.07 424.293 122.259 424.293C120.447 424.293 117.144 422.609 114.906 420.562C112.668 418.515 105.437 413.952 98.8453 410.434C87.1279 404.187 86.7911 404.123 83.8245 408.174C82.1557 410.456 80.7832 414.293 80.7704 416.703C80.7406 423.59 68.8292 442.629 60.6432 448.877C56.5577 452.011 52.0352 457.81 50.5945 461.797C46.2681 473.78 34.459 474.292 36.8332 462.416C38.4806 454.186 33.2101 454.313 23.3298 462.757C15.0564 469.835 12.5927 470.539 12.5927 465.87C12.5927 461.627 10.7854 461.84 2.22858 467.064C-1.71205 469.473 -5.42463 470.944 -6.01924 470.347C-7.74979 468.62 -7.35551 449.196 -5.50348 444.847C-4.57427 442.651 -1.53942 438.344 1.23756 435.252C11.5164 423.803 46.6922 372.952 46.6922 369.519C46.6922 368.495 48.6103 366.278 50.9547 364.594C55.2832 361.481 56.7814 356.065 53.3161 356.065C52.2718 356.065 49.9573 352.419 48.1713 347.942C46.3853 343.486 43.4037 338.582 41.5453 337.025C39.6869 335.49 38.1673 332.932 38.1673 331.332C38.1673 329.733 36.6243 324.574 34.7382 319.862L31.3112 311.29H10.9367C-0.269211 311.29 -15.7035 312.378 -23.3652 313.721C-33.5205 315.491 -37.508 315.512 -38.0813 313.785C-38.514 312.484 -42.2308 310.8 -46.3419 310.033C-58.5773 307.73 -58.0189 298.626 -45.6365 298.54C-43.0812 298.519 -39.554 297.069 -37.7957 295.299C-36.0375 293.551 -32.1331 292.101 -29.1195 292.101C-25.2279 292.101 -23.638 290.971 -23.638 288.199C-23.638 284.383 -28.6976 280.844 -37.7702 278.306C-40.5919 277.539 -42.7743 274.746 -43.533 270.929C-44.2064 267.582 -45.9988 264.874 -47.5162 264.938C-58.1233 265.386 -62 264.149 -62 260.354C-62 254.682 -55.3101 253.446 -19.3756 252.486C27.8118 251.25 25.9853 251.975 28.6365 233.212C29.4443 227.498 31.6394 220.419 33.5128 217.477C35.3882 214.556 36.6478 209.929 36.3111 207.243C35.9743 204.535 37.2936 199.887 39.2415 196.902C41.1894 193.938 43.2439 188.949 43.8087 185.836C44.3735 182.723 45.974 178.096 47.3636 175.538C48.751 173.001 52.2505 166.455 55.1361 160.997C58.0197 155.539 65.4129 145.283 71.5636 138.162C77.7143 131.062 84.9434 122.022 87.6287 118.056C90.3162 114.111 94.1907 110.316 96.2431 109.655C98.2933 108.994 99.9727 107.566 99.9727 106.457C99.9727 105.37 102.37 104.474 105.301 104.474C108.235 104.474 110.516 103.749 110.367 102.875C109.472 97.0757 111.113 93.8135 114.97 93.8135C117.336 93.8135 124.092 91.3829 129.953 88.4193C146.811 79.8694 170.51 71.8953 180.953 71.277C186.238 70.9572 198.706 69.1449 208.659 67.226C219.634 65.1152 230.674 64.2623 236.684 65.0938C246.722 66.4584 248.981 65.2644 250.899 57.5674C251.794 54.0281 255.14 24.8179 255.439 18.1231C255.524 15.7777 256.483 12.473 257.549 10.8099C259.126 8.31531 260.085 8.23003 262.749 10.4474C265.434 12.6862 266.841 12.3877 270.762 8.69908C277.39 2.53723 280.14 3.15554 280.736 10.9591C281.013 14.6477 281.781 18.5282 282.441 19.5942C284.146 22.366 289.645 17.2702 289.645 12.8994C289.645 9.55193 297.893 0 300.791 0C301.494 0 301.878 8.63511 301.665 19.1891C301.409 31.4275 302.091 38.3783 303.519 38.3783C306.78 38.3783 313.067 61.8743 311.66 68.7611C310.936 72.3644 311.383 74.6244 312.854 74.6244C314.154 74.6244 315.22 77.0337 315.22 79.9547C315.22 84.1337 316.306 85.285 320.228 85.285C336.915 85.285 369.566 104.197 369.566 113.856C369.566 117.075 370.78 118.205 373.828 117.864C379.114 117.288 389.812 121.361 389.812 123.983C389.812 125.028 392.221 126.819 395.14 127.928C398.081 129.036 400.468 131.275 400.468 132.874C400.468 134.473 402.877 138.588 405.796 142C408.737 145.39 411.124 149.334 411.124 150.763C411.124 152.17 414.939 157.33 419.585 162.234C427.897 170.975 429.751 174.941 438.425 202.552C443.242 217.903 447.76 250.674 445.991 257.454C444.926 261.505 446.055 261.889 462.615 263.04C490.491 265.002 501.446 266.729 504.898 269.714C507.008 271.548 516.705 272.742 533.222 273.253C552.574 273.85 560.971 276.515 563.23 278.328C553.767 282.784 560.203 279.436 548.055 286.366C537.25 288.413 527.148 289.479 508.095 288.647C494.029 288.05 473.718 288.178 462.956 288.946C444.201 290.289 443.306 290.587 441.409 296.024C440.322 299.137 436.443 306.408 432.799 312.143C429.155 317.9 425.084 326.066 423.763 330.266C419.287 344.594 412.552 357.11 405.669 363.933C401.896 367.685 397.506 373.698 395.908 377.28C394.33 380.883 391.517 384.316 389.663 384.891C387.809 385.488 384.292 387.855 381.82 390.136C378.112 393.612 377.643 395.509 379.177 401.309C380.179 405.168 382.055 415.978 383.355 425.359C384.655 434.741 386.786 447.704 388.107 454.143C391.134 468.94 392.007 487.66 390.494 504.781C389.152 520.111 385.379 522.392 381.714 510.111ZM232.102 409.368C232.102 408.196 235.043 407.236 238.602 407.236C242.183 407.236 247.788 405.85 251.07 404.145C254.352 402.46 259.062 401.607 261.555 402.247C266.585 403.569 296.358 395.19 298.426 391.885C299.171 390.712 298.873 385.787 297.786 380.947C296.444 374.977 296.529 371.907 298.063 371.395C302.049 370.052 300.514 362.12 296.039 360.948C293.694 360.329 291.776 359.221 291.776 358.474C291.755 357.749 290.753 350.991 289.538 343.464C285.809 320.437 282.974 299.756 282.996 295.641C283.017 292.208 281.802 291.909 272.979 293.125C263.964 294.361 243.717 294.66 199.068 294.233C181.272 294.063 161.772 296.238 161.772 298.412C161.772 299.244 159.406 301.035 156.508 302.357C153.567 303.7 150.583 307.367 149.752 310.672C148.942 313.934 145.596 319.286 142.335 322.548C139.053 325.81 136.858 329.691 137.412 331.162C137.987 332.633 136.73 335.746 134.663 338.07C128.653 344.807 117.016 361.907 117.016 364.018C117.016 366.342 128.78 375.254 131.849 375.254C133.064 375.254 134.066 376.192 134.066 377.344C134.066 380.734 154.206 389.966 169.146 393.441C176.733 395.19 186.089 398.473 189.946 400.712C193.804 402.929 200.304 405.04 204.396 405.36C208.509 405.68 212.814 406.618 213.987 407.449C215.947 408.835 222.725 410.477 229.438 411.202C230.909 411.372 232.102 410.541 232.102 409.368ZM377.153 332.825C380.84 329.115 383.419 324.296 383.419 321.056C383.419 318.028 384.314 315.555 385.379 315.555C386.445 315.555 388.406 310.587 389.706 304.51C391.006 298.434 393.116 292.187 394.394 290.651C396.312 288.349 392.583 287.837 374.02 287.837C347.294 287.837 346.101 288.882 353.539 305.662C356.203 311.695 358.334 318.54 358.27 320.885C358.206 323.23 359.165 330.629 360.401 337.345L362.66 349.541L366.774 344.317C369.033 341.439 373.7 336.279 377.153 332.825ZM81.2116 307.559C87.9377 299.734 87.763 298.498 79.9137 298.498C72.8444 298.498 72.5013 298.818 74.3235 303.615C75.3912 306.429 75.6875 309.308 74.9799 310.011C74.2745 310.715 74.6666 311.29 75.8516 311.29C77.0387 311.29 79.4491 309.606 81.2116 307.559ZM249.16 252.678C272.028 252.38 273.648 252.103 273.222 248.243C272.966 245.983 272.263 235.493 271.666 224.939C270.259 199.929 269.386 193.363 266.785 188.736C265.507 186.433 265.358 181.87 266.423 177.222C268.384 168.673 267.489 137.543 265.102 131.616C263.162 126.755 259.305 129.697 251.76 141.765C248.819 146.456 244.28 152.468 241.701 155.112C236.863 160.016 230.15 172.489 225.482 185.218C224.054 189.162 217.277 199.247 210.436 207.605C203.467 216.112 198.501 224.129 199.119 225.792C199.737 227.413 198.885 230.291 197.222 232.189C194.239 235.557 185.224 250.887 185.224 252.593C185.224 254.277 203.382 255.216 213.995 254.107C219.856 253.488 235.691 252.849 249.16 252.678ZM404.548 252.38C406.316 250.866 405.059 231.783 403.12 230.504C399.731 228.287 398.751 217.669 401.713 215.217C404.867 212.594 401.841 208.223 385.239 191.486C379.761 185.985 374.689 178.651 373.922 175.197C373.155 171.721 370.682 167.201 368.402 165.133C366.122 163.065 364.246 159.291 364.246 156.754C364.246 152.767 363.308 152.255 357.575 153.108C351.864 153.94 349.562 152.724 341.847 144.729C331.937 134.473 326.779 130.06 324.712 130.06C323.966 130.06 320.897 128.119 317.871 125.731C310.497 119.932 307.47 123.216 311.648 132.512C313.523 136.712 315.399 149.739 316.187 164.174C317.551 189.397 320.854 207.882 326.651 222.807C328.484 227.498 330.019 234.704 330.083 238.798C330.274 249.629 332.512 251.804 345.321 253.574C355.956 255.024 402.587 254.107 404.548 252.38ZM126.061 246.346C127.318 244.086 132.05 238.244 136.547 233.34C141.043 228.457 144.73 223.362 144.73 222.04C144.73 220.696 145.69 219.609 146.862 219.609C148.034 219.609 148.993 218.394 148.993 216.88C148.993 215.387 152.083 210.825 155.855 206.752C159.649 202.68 164.849 194.834 167.449 189.311C170.049 183.789 176.102 173.47 180.919 166.37C185.735 159.291 189.401 152.298 189.06 150.827C188.463 148.204 197.606 134.58 204.831 127.331C206.919 125.241 210.116 120.657 211.949 117.139L215.253 110.721L205.044 112.022C199.418 112.747 189.06 114.772 182.027 116.521C174.994 118.269 166.362 120.167 162.846 120.721C147.054 123.28 148.076 122.725 130.878 138.311C127.361 141.509 122.8 144.771 120.754 145.56C118.708 146.349 117.025 148.46 117.025 150.251C117.025 152.085 115.17 153.513 112.762 153.513C110.418 153.513 108.5 154.878 108.5 156.541C108.5 158.204 104.964 163.513 100.633 168.331C96.3049 173.15 92.4581 179.099 92.0851 181.551C91.7121 183.981 90.0114 188.523 88.3022 191.614C81.2287 204.407 78.3089 215.259 77.3157 232.444L76.2672 250.61L100.015 250.525C121.202 250.461 124.015 250.013 126.061 246.346Z" fill="#E33636"/>
</g>
<defs>
<clipPath id="clip0_145_2814">
<rect width="563" height="518" fill="white"/>
</clipPath>
</defs>
</svg>
