<svg width="14" height="12" viewBox="0 0 14 12" fill="none" xmlns="http://www.w3.org/2000/svg">
<path d="M7.26563 11.7066C7.06875 11.5128 6.97188 11.2566 6.97188 11.0003C6.97188 10.7441 7.06953 10.4885 7.26485 10.2935L10.5563 7.00033L0.971882 7.00033C0.419069 7.00033 6.43404e-06 6.55252 6.43404e-06 6.02845C6.43404e-06 5.50439 0.418756 5.00033 0.971882 5.00033L10.5563 5.00033L7.26563 1.70752C6.875 1.31689 6.875 0.684082 7.26563 0.293457C7.65625 -0.0971679 8.28907 -0.0971679 8.67969 0.293457L13.6797 5.29345C14.0703 5.68408 14.0703 6.31689 13.6797 6.70752L8.67969 11.7075C8.2875 12.0972 7.65625 12.0972 7.26563 11.7066Z" fill="#E8E8E8"/>
</svg>
