<svg width="32" height="32" viewBox="0 0 32 32" fill="none" xmlns="http://www.w3.org/2000/svg">
<path d="M9.00942 13.172C9.00947 12.9084 9.0877 12.6506 9.23421 12.4314C9.38073 12.2122 9.58894 12.0414 9.83254 11.9405C10.0761 11.8396 10.3442 11.8132 10.6028 11.8646C10.8614 11.916 11.0989 12.043 11.2854 12.2294L16.0001 16.9427L20.7147 12.2294C20.9662 11.9865 21.303 11.8521 21.6526 11.8551C22.0022 11.8582 22.3366 11.9984 22.5838 12.2456C22.8311 12.4928 22.9713 12.8272 22.9743 13.1768C22.9774 13.5264 22.843 13.8632 22.6001 14.1147L16.9427 19.7707C16.6927 20.0207 16.3536 20.1611 16.0001 20.1611C15.6465 20.1611 15.3075 20.0207 15.0574 19.7707L9.40008 14.1147C9.27608 13.9911 9.17774 13.8441 9.1107 13.6823C9.04366 13.5206 9.00924 13.3472 9.00942 13.172Z" fill="#E8E8E8"/>
</svg>
