<svg width="24" height="24" viewBox="0 0 24 24" fill="none" xmlns="http://www.w3.org/2000/svg">
<path d="M19.77 5.32631C18.4321 4.71242 16.9974 4.26013 15.4973 4.00109C15.47 3.99609 15.4427 4.00858 15.4286 4.03357C15.2441 4.36175 15.0397 4.78988 14.8966 5.12639C13.2832 4.88484 11.678 4.88484 10.0977 5.12639C9.95452 4.7824 9.74272 4.36175 9.55737 4.03357C9.5433 4.00941 9.51601 3.99692 9.48869 4.00109C7.98944 4.2593 6.55473 4.71159 5.21599 5.32631C5.2044 5.33131 5.19446 5.33965 5.18787 5.35047C2.46652 9.4161 1.72103 13.3818 2.08675 17.2983C2.0884 17.3175 2.09916 17.3358 2.11405 17.3475C3.90952 18.666 5.64873 19.4665 7.35565 19.9971C7.38297 20.0054 7.41191 19.9954 7.4293 19.9729C7.83307 19.4215 8.193 18.8401 8.5016 18.2287C8.51981 18.1929 8.50243 18.1504 8.46521 18.1363C7.8943 17.9197 7.35069 17.6557 6.82777 17.3558C6.7864 17.3317 6.78309 17.2725 6.82114 17.2442C6.93118 17.1617 7.04126 17.0759 7.14633 16.9893C7.16534 16.9735 7.19183 16.9701 7.21418 16.9801C10.6495 18.5486 14.3687 18.5486 17.7636 16.9801C17.7859 16.9693 17.8124 16.9726 17.8322 16.9885C17.9373 17.0751 18.0474 17.1617 18.1583 17.2442C18.1963 17.2725 18.1938 17.3317 18.1525 17.3558C17.6295 17.6615 17.0859 17.9197 16.5142 18.1354C16.477 18.1496 16.4604 18.1929 16.4786 18.2287C16.7938 18.8393 17.1538 19.4207 17.5501 19.9721C17.5667 19.9954 17.5964 20.0054 17.6237 19.9971C19.3389 19.4665 21.0781 18.666 22.8736 17.3475C22.8893 17.3358 22.8993 17.3183 22.9009 17.2992C23.3386 12.7712 22.1678 8.83804 19.7973 5.3513C19.7915 5.33965 19.7816 5.33131 19.77 5.32631ZM9.01462 14.9136C7.98034 14.9136 7.12812 13.964 7.12812 12.7979C7.12812 11.6317 7.96381 10.6822 9.01462 10.6822C10.0737 10.6822 10.9176 11.6401 10.9011 12.7979C10.9011 13.964 10.0654 14.9136 9.01462 14.9136ZM15.9896 14.9136C14.9554 14.9136 14.1031 13.964 14.1031 12.7979C14.1031 11.6317 14.9388 10.6822 15.9896 10.6822C17.0487 10.6822 17.8926 11.6401 17.8761 12.7979C17.8761 13.964 17.0487 14.9136 15.9896 14.9136Z" fill="white"/>
</svg>
