<svg width="25" height="24" viewBox="0 0 25 24" fill="none" xmlns="http://www.w3.org/2000/svg">
<path d="M2.04259 14.1354C1.56972 13.9445 1.21178 13.5366 0.976045 13.0914C0.638875 12.4553 0.499023 11.6868 0.499023 10.9713C0.499023 10.2558 0.63749 9.487 0.976045 8.85085C1.21178 8.406 1.56938 7.99785 2.04259 7.80725C2.72295 5.54975 4.11149 3.5715 6.00265 2.16538C7.8938 0.75926 10.187 0 12.5429 0C14.8988 0 17.1921 0.75926 19.0832 2.16538C20.9743 3.5715 22.3629 5.54975 23.0432 7.80725C23.5161 7.99815 23.8741 8.4063 24.1098 8.8512C24.447 9.48735 24.5868 10.2558 24.5868 10.9717C24.5868 11.6875 24.4484 12.4557 24.1098 13.0918C23.8741 13.537 23.5161 13.9448 23.0432 14.1357C22.5215 15.871 21.5779 17.4498 20.2971 18.7307C20.0622 18.9659 19.8167 19.1904 19.5604 19.4043L19.5581 19.6122C19.5424 20.8435 19.2264 22.1972 18.0826 22.8653C16.5564 23.7564 14.2901 24 12.544 24C10.7979 24 8.5322 23.7575 7.00525 22.8653C5.8629 22.1972 5.54515 20.8432 5.5299 19.6118L5.52745 19.4039C5.272 19.1905 5.02645 18.966 4.79082 18.7304C3.50926 17.4497 2.565 15.8709 2.04259 14.1354Z" fill="white" fill-opacity="0.88"/>
<path d="M22.4613 13.4214C23.1788 13.4214 23.7605 12.3245 23.7605 10.9714C23.7605 9.61833 23.1788 8.52148 22.4613 8.52148C21.7438 8.52148 21.1621 9.61833 21.1621 10.9714C21.1621 12.3245 21.7438 13.4214 22.4613 13.4214Z" fill="#231D35"/>
<path d="M2.62534 13.4214C3.34287 13.4214 3.92452 12.3245 3.92452 10.9714C3.92452 9.61833 3.34287 8.52148 2.62534 8.52148C1.90783 8.52148 1.32617 9.61833 1.32617 10.9714C1.32617 12.3245 1.90783 13.4214 2.62534 13.4214Z" fill="#231D35"/>
<path d="M12.5434 21.1169C10.1983 21.1168 7.9257 20.3029 6.11295 18.8138C4.30021 17.3246 3.0594 15.2525 2.60195 12.9503C2.14451 10.6482 2.49875 8.2585 3.60429 6.18845C4.70985 4.11837 6.4983 2.49605 8.66495 1.59786C10.8316 0.699676 13.2424 0.581206 15.4865 1.26264C17.7306 1.94407 19.6692 3.38324 20.9721 5.33495C22.275 7.2866 22.8614 9.6301 22.6315 11.966C22.4016 14.302 21.3695 16.4858 19.7112 18.1455C18.7708 19.0889 17.6536 19.837 16.4235 20.347C15.1934 20.8568 13.8748 21.1185 12.5434 21.1169Z" fill="#231D35"/>
<path d="M12.5428 20.2869C14.6962 20.2869 16.7829 19.5396 18.4474 18.1723C20.1119 16.805 21.2513 14.9024 21.6714 12.7885C22.0915 10.6747 21.7663 8.4804 20.7512 6.57965C19.7361 4.67887 18.094 3.18917 16.1046 2.3644C14.1152 1.53962 11.9016 1.43077 9.841 2.05642C7.7804 2.68207 6.00025 4.00348 4.80394 5.7955C3.60762 7.58755 3.06911 9.73935 3.28019 11.8842C3.49125 14.0291 4.43884 16.0344 5.96145 17.5584C6.82475 18.4248 7.8506 19.1119 8.98005 19.5801C10.1095 20.0484 11.3203 20.2886 12.5428 20.2869Z" fill="white" fill-opacity="0.88"/>
<path d="M12.543 20.2866H12.6632L12.7833 20.2841C12.8231 20.2841 12.8629 20.2821 12.9027 20.2803C12.9425 20.2786 12.9823 20.2772 13.0222 20.2751C13.0619 20.2731 13.1011 20.271 13.1409 20.2682L13.2593 20.2602L13.377 20.2505C13.4164 20.2467 13.4555 20.2432 13.4947 20.2391C13.5338 20.2349 13.5729 20.2311 13.6117 20.2266L13.7283 20.2124C13.7675 20.2076 13.8059 20.2024 13.8446 20.1968C13.8834 20.1916 13.9218 20.1857 13.9606 20.1798C13.999 20.174 14.0375 20.168 14.0759 20.1614C14.1143 20.1549 14.1524 20.1487 14.1905 20.1417L14.305 20.1206L14.4189 20.098L14.5321 20.0742C14.5699 20.0659 14.6073 20.0576 14.645 20.0485C14.6824 20.0399 14.7201 20.0312 14.7575 20.0219L14.8689 19.9942L14.9804 19.9646L15.0912 19.9338L15.2013 19.902L15.3107 19.8673L15.4197 19.8326C15.4561 19.8209 15.492 19.8091 15.5281 19.798C15.5627 19.7859 15.6001 19.7734 15.6361 19.761L15.743 19.7225L15.8497 19.6826L15.9556 19.6414L16.0594 19.5991C16.094 19.5849 16.1287 19.5704 16.1633 19.5555C16.1979 19.5406 16.2325 19.526 16.2671 19.5108L16.371 19.4647L16.4748 19.4175L16.5766 19.369C16.6112 19.3524 16.6458 19.3344 16.678 19.3192C16.7102 19.304 16.7473 19.2845 16.7788 19.2686L16.8788 19.2167C16.9134 19.1989 16.9453 19.1819 16.9782 19.1632C17.011 19.1446 17.0439 19.1286 17.0765 19.1089L17.1744 19.0534C17.207 19.0347 17.2392 19.0156 17.2714 18.9966L17.368 18.9391L17.4635 18.8801L17.5583 18.8199L17.6521 18.7589L17.7456 18.6966L17.8381 18.6335L17.9294 18.569L18.0205 18.5035L18.1105 18.437L18.1994 18.3678L18.2877 18.2985L18.3753 18.2292C18.4044 18.206 18.4331 18.1824 18.4618 18.1598L18.5477 18.0882L18.6325 18.0154L18.7166 17.9415L18.7997 17.8668C18.827 17.8418 18.8547 17.8165 18.8817 17.7912C18.9091 17.7659 18.9361 17.7402 18.9631 17.7146C18.9901 17.689 19.0167 17.663 19.0434 17.637L19.123 17.5583C19.1493 17.532 19.1753 17.5057 19.2013 17.479C19.2276 17.4523 19.2532 17.4256 19.2788 17.3986C19.3048 17.3716 19.33 17.3446 19.3553 17.3172L19.4308 17.2351L19.5052 17.152C19.5301 17.124 19.5547 17.096 19.5789 17.0678C19.6035 17.0397 19.6274 17.0112 19.6516 16.9828L19.7233 16.8969L19.7925 16.8103L19.8617 16.7227C19.8849 16.6932 19.9074 16.6637 19.931 16.6343C19.9538 16.6045 19.9763 16.5751 20.0002 16.5449C20.0227 16.5151 20.0449 16.4849 20.0667 16.4548C20.0888 16.4246 20.1106 16.3945 20.1321 16.364C20.1539 16.3335 20.175 16.303 20.1965 16.2722C20.2177 16.2417 20.2388 16.2109 20.2598 16.1797C20.2806 16.1489 20.3014 16.1177 20.3218 16.0865C20.3422 16.0553 20.3626 16.0238 20.3831 15.9923C20.4032 15.9607 20.4232 15.9292 20.443 15.8974C20.4627 15.8654 20.4824 15.8339 20.5018 15.8017C20.5212 15.7695 20.5406 15.7376 20.5596 15.7054C20.5787 15.6732 20.5974 15.6406 20.616 15.6084C20.6347 15.5761 20.6534 15.5436 20.6714 15.5106C20.6898 15.476 20.7081 15.4452 20.7258 15.412C20.7434 15.3786 20.7604 15.3457 20.7791 15.3128C20.7978 15.2799 20.8137 15.2459 20.831 15.2127C20.8483 15.1794 20.8656 15.1454 20.8819 15.1118C20.8982 15.0782 20.9165 15.0426 20.9314 15.0104C20.9463 14.9781 20.9639 14.941 20.9799 14.9064C20.9958 14.8717 21.0117 14.8371 21.0269 14.8025C21.0425 14.7678 21.0577 14.7331 21.073 14.6985C21.0882 14.6638 21.1031 14.6292 21.118 14.5946C21.1325 14.5599 21.1471 14.5252 21.1613 14.4906C21.1754 14.456 21.1897 14.4213 21.2038 14.3867C21.2177 14.352 21.2312 14.3174 21.2447 14.2807C21.2582 14.2439 21.2713 14.2113 21.2845 14.174C21.2977 14.1393 21.3105 14.1026 21.3229 14.0666C21.3357 14.0319 21.3478 13.9948 21.3603 13.9588C21.3724 13.9241 21.3845 13.8863 21.3949 13.8504C21.4053 13.8143 21.4181 13.7776 21.4295 13.7412C21.441 13.7048 21.452 13.6681 21.4642 13.6313L21.4964 13.5211C21.5067 13.4844 21.5168 13.4473 21.5268 13.4103C21.5369 13.3733 21.5465 13.3361 21.5562 13.2991C21.5659 13.262 21.5753 13.2246 21.5843 13.1872C21.5933 13.1497 21.6023 13.1123 21.6109 13.0749C21.6196 13.0375 21.6279 13.0001 21.6362 12.9623C21.6445 12.9246 21.6525 12.8868 21.6601 12.8486C21.6681 12.8109 21.6753 12.7728 21.6826 12.7346C21.6899 12.6965 21.6971 12.6584 21.704 12.6203L21.7238 12.5053C21.73 12.4668 21.7363 12.4284 21.7421 12.3899C21.748 12.3514 21.7535 12.3126 21.7591 12.2742C21.7643 12.2354 21.7695 12.1966 21.7743 12.1577C21.7792 12.1189 21.784 12.0798 21.7885 12.041C21.793 12.0022 21.7972 11.963 21.8013 11.9239C21.8055 11.8847 21.8089 11.8452 21.8124 11.8061C21.8159 11.7666 21.819 11.7274 21.8221 11.6879C21.8252 11.6484 21.828 11.6089 21.8304 11.5694C21.8328 11.5299 21.8353 11.4904 21.837 11.4506C21.8387 11.4107 21.8408 11.3712 21.8425 11.3314C21.8443 11.2915 21.8453 11.2517 21.8463 11.2119C21.8474 11.172 21.8463 11.1318 21.8484 11.0916C21.8505 11.0514 21.8484 11.0116 21.8484 10.9714C21.8484 10.9312 21.8484 10.891 21.8484 10.8508C21.8484 10.8106 21.8484 10.7708 21.8463 10.7309C21.8443 10.6911 21.8439 10.6509 21.8425 10.6111C21.8411 10.5712 21.8391 10.5317 21.837 10.4919C21.8349 10.452 21.8328 10.4125 21.8304 10.373C21.828 10.3335 21.8252 10.294 21.8221 10.2545C21.819 10.215 21.8159 10.1755 21.8124 10.1364C21.8089 10.0972 21.8051 10.0577 21.8013 10.0189C21.7975 9.98015 21.793 9.94065 21.7885 9.9015C21.784 9.86235 21.7795 9.82355 21.7743 9.7847C21.7691 9.7459 21.7643 9.7071 21.7591 9.6683C21.7539 9.6295 21.748 9.59105 21.7421 9.5526C21.7363 9.51415 21.73 9.47565 21.7238 9.4372L21.704 9.3222C21.6971 9.28405 21.6899 9.24595 21.6826 9.20785C21.6753 9.1697 21.6681 9.1316 21.6601 9.09385C21.6521 9.0561 21.6445 9.018 21.6362 8.9802C21.6279 8.94245 21.6196 8.905 21.6109 8.86725C21.6023 8.8295 21.5933 8.7924 21.5843 8.755C21.5753 8.7176 21.5659 8.68015 21.5562 8.6431C21.5465 8.606 21.5369 8.56895 21.5268 8.53185C21.5168 8.4948 21.5067 8.4577 21.4964 8.421L21.4642 8.3108C21.4534 8.27405 21.442 8.2377 21.4295 8.20095C21.4171 8.16425 21.4067 8.1282 21.3949 8.09185C21.3831 8.05545 21.371 8.0194 21.3603 7.9834C21.3496 7.94735 21.3357 7.91135 21.3229 7.87565C21.3105 7.841 21.2977 7.8039 21.2845 7.7682C21.2713 7.73255 21.2582 7.69685 21.2447 7.6615C21.2312 7.62615 21.2177 7.5922 21.2038 7.5555C21.19 7.51875 21.1758 7.4862 21.1613 7.45155C21.1467 7.4169 21.1325 7.38225 21.118 7.3476C21.1031 7.31295 21.0882 7.2783 21.073 7.24365C21.0577 7.209 21.0425 7.17435 21.0269 7.1397C21.0117 7.10505 20.9958 7.0704 20.9799 7.03575C20.9639 7.0011 20.9477 6.96645 20.9314 6.9318C20.9151 6.89715 20.8985 6.8625 20.8819 6.8303C20.8653 6.79805 20.8473 6.7631 20.831 6.7295C20.8147 6.69585 20.7964 6.6626 20.7791 6.6297C20.7618 6.59675 20.7445 6.56315 20.7258 6.53025C20.7071 6.49735 20.6912 6.4644 20.6714 6.4315C20.6517 6.3986 20.6347 6.366 20.616 6.3338C20.5974 6.3016 20.5787 6.26865 20.5596 6.23645C20.5406 6.2042 20.5212 6.172 20.5018 6.1401C20.4824 6.10825 20.4627 6.076 20.443 6.0445C20.4232 6.01295 20.4032 5.9811 20.3831 5.94955C20.363 5.918 20.3426 5.88685 20.3218 5.8553C20.301 5.82375 20.2806 5.79295 20.2598 5.7621L20.1965 5.6696C20.175 5.63875 20.1539 5.60825 20.1321 5.5778C20.1106 5.5473 20.0888 5.51715 20.0667 5.487C20.0449 5.45685 20.0227 5.4267 20.0002 5.3969C19.9771 5.3671 19.9541 5.3373 19.931 5.30755C19.9081 5.27805 19.8856 5.2486 19.8617 5.21915L19.7925 5.1315L19.7233 5.0449L19.6516 4.95897L19.5789 4.87408C19.5547 4.846 19.5301 4.81793 19.5052 4.79022C19.4806 4.76215 19.4557 4.73444 19.4308 4.70707L19.3553 4.62461C19.33 4.59758 19.3048 4.5702 19.2788 4.54319C19.2532 4.51649 19.2276 4.48948 19.2013 4.46279C19.1753 4.43648 19.1493 4.40978 19.123 4.38344L19.0434 4.3048C19.0167 4.27882 18.9901 4.25283 18.9631 4.22719C18.9361 4.20155 18.9091 4.17592 18.8817 4.15062C18.8547 4.12532 18.827 4.10002 18.7997 4.07508L18.7166 4.00025L18.6356 3.92645L18.5508 3.85403C18.5224 3.82977 18.4937 3.80587 18.465 3.78231C18.4362 3.75841 18.4075 3.73484 18.3784 3.71302C18.3493 3.69119 18.3203 3.66623 18.2908 3.64373C18.2618 3.62063 18.2323 3.59752 18.2025 3.57442C18.1731 3.55156 18.1434 3.52903 18.1136 3.50513L18.0236 3.43895C17.9935 3.41677 17.963 3.39494 17.9325 3.37345C17.9021 3.35175 17.8716 3.33026 17.8412 3.30901L17.7487 3.24561C17.7176 3.22448 17.6864 3.20403 17.6553 3.18324L17.5615 3.12228L17.4666 3.06232C17.4347 3.04223 17.4029 3.02282 17.3711 3.00343C17.3392 2.98401 17.307 2.96462 17.2745 2.94557C17.242 2.9265 17.2101 2.90744 17.1775 2.88873L17.0796 2.83331C17.0471 2.81493 17.0142 2.79692 16.9813 2.7789C16.9484 2.76089 16.9152 2.74424 16.8819 2.72589L16.7819 2.67358C16.7473 2.6566 16.7151 2.63893 16.6811 2.62299C16.6472 2.60704 16.6119 2.58833 16.5797 2.57309C16.5475 2.55785 16.5105 2.54087 16.478 2.52493C16.4454 2.50899 16.4087 2.49307 16.3741 2.47746L16.2702 2.43138L16.1664 2.38669C16.1318 2.37179 16.0972 2.35724 16.0625 2.34303L15.9587 2.30076C15.9241 2.2869 15.8895 2.27305 15.8528 2.25988L15.7461 2.21968L15.6388 2.18123L15.5308 2.14415L15.4225 2.1095L15.3134 2.07486C15.2788 2.06342 15.2407 2.05234 15.2041 2.04021C15.1673 2.02808 15.1307 2.01838 15.094 2.00799L14.9832 1.97715C14.9461 1.9671 14.9091 1.9574 14.8717 1.94805C14.8343 1.93869 14.7973 1.92899 14.7603 1.91998C14.7232 1.91097 14.6852 1.90196 14.6477 1.8933L14.5349 1.86766L14.4217 1.84376L14.3078 1.82123L14.1932 1.8001C14.1551 1.79317 14.1167 1.78658 14.0786 1.78035L13.9634 1.76199L13.8474 1.74501C13.8086 1.73946 13.7702 1.73427 13.7311 1.72942L13.6144 1.71521C13.5757 1.71105 13.5365 1.70655 13.4974 1.70274C13.4583 1.69893 13.4192 1.69511 13.3797 1.69165C13.3403 1.68819 13.3012 1.68472 13.262 1.6816L13.1437 1.67363C13.1042 1.67086 13.0644 1.66878 13.0249 1.6667L12.9055 1.66151C12.8657 1.66151 12.8259 1.65874 12.7861 1.6577L12.6659 1.65527H12.5458H12.4326H12.416H12.317H12.2935H12.2845L12.2235 1.657H12.2062H12.1629H12.1283H12.111H12.1024H12.0937L12.0418 1.65943H12.0331H12.0162H12.0075H11.9989H11.9902C14.3587 1.80053 16.5839 2.84168 18.211 4.57008C19.8381 6.2985 20.7443 8.58365 20.7443 10.9584C20.7443 13.3333 19.8381 15.6184 18.211 17.3468C16.5839 19.0752 14.3587 20.1164 11.9902 20.2575H11.9989H12.0075H12.0162H12.0331H12.0418L12.0937 20.2598H12.1024H12.111H12.1283H12.1629H12.2062H12.2235H12.2845H12.2935H12.317L12.416 20.2616H12.4326H12.5458L12.543 20.2866Z" fill="#50F9D1"/>
<path d="M12.5429 20.2867C12.7296 20.2867 12.9143 20.2812 13.0968 20.2701C10.7283 20.129 8.5031 19.0878 6.87595 17.3594C5.24885 15.631 4.34269 13.3459 4.34269 10.9711C4.34269 8.59625 5.24885 6.31115 6.87595 4.58275C8.5031 2.85435 10.7283 1.81318 13.0968 1.67208C12.9122 1.66099 12.7276 1.65545 12.5429 1.65545C11.3159 1.64796 10.0995 1.88338 8.9637 2.34818C7.8279 2.81299 6.7952 3.49798 5.9249 4.36375C5.0546 5.22955 4.36393 6.259 3.89263 7.39295C3.42133 8.5269 3.17871 9.74295 3.17871 10.9711C3.17871 12.1993 3.42133 13.4153 3.89263 14.5492C4.36393 15.6832 5.0546 16.7126 5.9249 17.5784C6.7952 18.4442 7.8279 19.1292 8.9637 19.594C10.0995 20.0588 11.3159 20.2942 12.5429 20.2867Z" fill="#A930FC"/>
<path d="M6.78045 6.4105C8.2572 5.00895 10.2948 4.14209 12.5431 4.14209C14.7915 4.14209 16.829 5.0083 18.3058 6.4105C19.7825 7.8127 20.7043 9.7613 20.7043 11.9094C20.7043 14.0576 19.7874 16.0021 18.3058 17.4084C16.8242 18.8148 14.7932 19.6772 12.5431 19.6772C10.293 19.6772 8.2572 18.811 6.78045 17.4084C5.3037 16.0059 4.38184 14.0576 4.38184 11.9094C4.38184 9.7613 5.29885 7.81685 6.78045 6.4105Z" fill="#231D35"/>
<path d="M19.0807 14.6852C19.4844 13.7926 19.7064 12.8284 19.7339 11.8489C19.7824 10.0279 19.1371 8.22545 17.787 6.8738C16.437 5.5222 14.6369 4.87671 12.8161 4.92487C11.8372 4.95188 10.8736 5.17415 9.98165 5.5787C9.9118 5.609 9.85605 5.6648 9.82565 5.7347C9.7953 5.80465 9.79265 5.88345 9.81815 5.9553C9.84365 6.02715 9.89545 6.0866 9.96305 6.12165C10.0307 6.1567 10.1091 6.16475 10.1824 6.14415C10.7221 6.00265 11.2763 5.92355 11.834 5.9085C13.6538 5.86 15.4546 6.50585 16.8046 7.8575C18.1547 9.2091 18.7999 11.0104 18.7518 12.8326C18.7365 13.3909 18.6574 13.9457 18.5161 14.486C18.4971 14.5589 18.5062 14.6363 18.5415 14.7028C18.5769 14.7694 18.6358 14.8202 18.7068 14.8453C18.7778 14.8703 18.8556 14.8678 18.9248 14.8383C18.9941 14.8087 19.0497 14.7542 19.0807 14.6856V14.6852Z" fill="white" fill-opacity="0.88"/>
<path d="M18.7292 19.6036C18.7178 20.5197 18.525 21.6479 17.6644 22.1523C16.2863 22.9569 14.1138 23.1741 12.5411 23.1741C10.9685 23.1741 8.79768 22.9569 7.41783 22.1523C6.55728 21.6496 6.36408 20.5194 6.35303 19.6036L6.33398 18.0791L7.62688 18.885C9.10193 19.8014 10.8034 20.2869 12.5394 20.2869C14.2754 20.2869 15.9769 19.8014 17.4519 18.885L18.7448 18.0791L18.7258 19.6036H18.7292Z" fill="#231D35"/>
<path d="M7.18945 19.5933C7.19745 20.2384 7.3113 21.1223 7.8413 21.4317C8.87805 22.0374 10.7038 22.3402 12.5426 22.3402C14.3815 22.3402 16.2072 22.0374 17.2439 21.4317C17.7739 21.1223 17.8878 20.2384 17.8958 19.5933C16.2885 20.592 14.4344 21.1213 12.5426 21.1213C10.6508 21.1213 8.7967 20.592 7.18945 19.5933Z" fill="white" fill-opacity="0.88"/>
<path d="M7.19015 19.5933C7.19815 20.2384 7.312 21.1223 7.842 21.4317C8.87875 22.0374 10.7045 22.3402 12.5433 22.3402C12.6126 22.3402 12.6818 22.3402 12.751 22.3402C10.9835 22.318 9.2547 22.0159 8.25775 21.4331C7.79425 21.1625 7.64915 20.4512 7.6149 19.8455C7.4709 19.7651 7.3291 19.6815 7.18945 19.5947L7.19015 19.5933Z" fill="#A930FC"/>
<path d="M17.8958 19.5933C17.8879 20.2384 17.774 21.1223 17.244 21.4317C16.2055 22.0374 14.3816 22.3402 12.5427 22.3402C12.4735 22.3402 12.4042 22.3402 12.335 22.3402C14.1025 22.318 15.8313 22.0159 16.8279 21.4331C17.2918 21.1625 17.4368 20.4512 17.4711 19.8455C17.6146 19.7642 17.7562 19.6801 17.8958 19.5933Z" fill="#50F9D1"/>
</svg>
