<svg width="14" height="14" viewBox="0 0 14 14" fill="none" xmlns="http://www.w3.org/2000/svg">
<path opacity="0.4" d="M6.70817 12.2501C9.76875 12.2501 12.2498 9.76899 12.2498 6.70841C12.2498 3.64784 9.76875 1.16675 6.70817 1.16675C3.64759 1.16675 1.1665 3.64784 1.1665 6.70841C1.1665 9.76899 3.64759 12.2501 6.70817 12.2501Z" fill="#999999"/>
<path d="M12.425 12.8333C12.32 12.8333 12.215 12.7925 12.1392 12.7167L11.0542 11.6317C10.8967 11.4742 10.8967 11.2175 11.0542 11.0542C11.2117 10.8967 11.4683 10.8967 11.6317 11.0542L12.7167 12.1392C12.8742 12.2967 12.8742 12.5533 12.7167 12.7167C12.635 12.7925 12.53 12.8333 12.425 12.8333Z" fill="#999999"/>
</svg>
