<svg width="24" height="24" viewBox="0 0 24 24" fill="none" xmlns="http://www.w3.org/2000/svg">
<path d="M21.6923 5.89434C20.9675 6.21557 20.1893 6.43261 19.3725 6.53019C20.2061 6.03056 20.8475 5.23867 21.1484 4.29531C20.3682 4.75886 19.5031 5.09483 18.5832 5.27577C17.8467 4.49099 16.7971 4 15.6356 4C13.4048 4 11.5963 5.80895 11.5963 8.03926C11.5963 8.35592 11.6319 8.66393 11.7015 8.96026C8.34385 8.79151 5.36787 7.18333 3.37541 4.73954C3.02774 5.33575 2.8285 6.03005 2.8285 6.7701C2.8285 8.17142 3.40031 9.40805 4.48447 10.1323C3.82219 10.111 3.02317 9.92954 2.51489 9.62661V9.67744C2.51489 11.6348 4.04735 13.2669 5.89495 13.6379C5.55542 13.7304 5.26875 13.7802 4.90076 13.7802C4.64052 13.7802 4.42246 13.7548 4.17595 13.7076C4.69084 15.3117 6.20043 16.4802 7.96721 16.5127C6.5852 17.5959 4.85196 18.2419 2.96014 18.2419C2.63332 18.2419 2.31666 18.2226 2 18.1855C3.78762 19.3316 5.91274 20 8.19391 20C15.6239 20 19.6877 13.8453 19.6877 8.50789C19.6877 8.33254 19.6836 8.1582 19.6765 7.98539C20.4658 7.41612 21.1515 6.70403 21.6923 5.89434Z" fill="white"/>
</svg>
