<?xml version="1.0" standalone="no"?>
<!DOCTYPE svg PUBLIC "-//W3C//DTD SVG 20010904//EN"
 "http://www.w3.org/TR/2001/REC-SVG-20010904/DTD/svg10.dtd">
<svg version="1.0" xmlns="http://www.w3.org/2000/svg"
 width="512.000000pt" height="512.000000pt" viewBox="0 0 512.000000 512.000000"
 preserveAspectRatio="xMidYMid meet">
<metadata>
Created by potrace 1.14, written by Peter Selinger 2001-2017
</metadata>
<g transform="translate(0.000000,512.000000) scale(0.100000,-0.100000)"
fill="#000000" stroke="none">
<path d="M2880 4496 c0 -8 -7 -17 -16 -20 -9 -3 -14 -11 -12 -18 7 -19 -25
-44 -49 -40 -13 2 -23 9 -23 15 0 6 -6 3 -12 -6 -7 -9 -24 -18 -38 -20 -14 -1
-35 -8 -47 -15 -13 -7 -23 -9 -23 -5 0 4 -4 2 -9 -6 -5 -7 -22 -14 -39 -14
-29 -2 -30 -3 -27 -44 2 -24 0 -43 -4 -43 -4 0 -5 -19 -3 -42 2 -24 4 -50 3
-58 -1 -8 -3 -40 -5 -70 -2 -30 -4 -58 -5 -61 -1 -8 -51 -30 -76 -34 -11 -2
-49 -6 -84 -9 -36 -4 -67 -10 -70 -14 -3 -4 -24 -9 -46 -11 -22 -2 -47 -5 -57
-6 -9 0 -22 -6 -30 -12 -7 -6 -29 -11 -48 -11 -19 0 -36 -6 -38 -11 -2 -6 -17
-11 -33 -11 -16 0 -29 -4 -29 -10 0 -5 -10 -10 -23 -10 -12 0 -32 -7 -43 -15
-12 -8 -24 -12 -27 -9 -3 3 -16 -3 -28 -15 -13 -12 -29 -21 -36 -21 -21 0 -27
-3 -41 -17 -8 -7 -18 -10 -24 -7 -6 4 -8 2 -4 -4 3 -6 -2 -13 -13 -17 -11 -3
-22 -12 -25 -20 -3 -8 -12 -15 -20 -15 -8 0 -30 -16 -49 -35 -19 -19 -40 -35
-46 -35 -6 0 -11 -4 -11 -8 0 -5 -14 -23 -31 -40 -17 -18 -29 -32 -26 -32 4 0
-9 -16 -29 -35 -19 -19 -32 -35 -30 -35 3 0 -6 -12 -19 -26 -14 -15 -25 -33
-25 -40 0 -7 -9 -19 -20 -27 -11 -7 -21 -24 -23 -36 -2 -13 -8 -26 -13 -29 -6
-4 -16 -22 -23 -39 -8 -18 -17 -33 -21 -33 -3 0 -7 -6 -7 -12 -1 -25 -8 -43
-21 -53 -7 -6 -14 -20 -15 -33 0 -12 -5 -22 -10 -22 -4 0 -5 -5 -2 -10 4 -6 1
-18 -7 -27 -7 -9 -12 -17 -10 -17 6 -2 -10 -56 -17 -56 -3 0 -7 -10 -8 -22 -2
-30 -10 -73 -13 -73 -2 0 -10 -44 -12 -72 -1 -13 -5 -23 -9 -23 -4 0 -7 -15
-8 -32 -3 -72 -7 -88 -19 -88 -7 0 -11 -4 -8 -9 7 -12 -21 -24 -59 -27 -16 -1
-33 -3 -37 -4 -5 -1 -16 -3 -26 -4 -11 0 -26 -7 -35 -15 -13 -10 -17 -10 -17
-1 0 10 -3 10 -14 0 -8 -6 -23 -11 -33 -10 -10 1 -20 1 -23 0 -3 -1 -36 -3
-74 -5 -37 -3 -75 -10 -84 -17 -13 -11 -15 -11 -8 2 6 13 6 13 -6 0 -7 -9 -20
-15 -28 -15 -8 1 -21 -3 -28 -9 -8 -6 -22 -11 -31 -13 -21 -3 -80 -33 -66 -33
6 0 21 -10 35 -23 14 -12 36 -28 50 -35 31 -15 60 -34 77 -49 7 -6 22 -15 33
-18 11 -4 17 -11 14 -17 -4 -6 -3 -9 2 -5 5 3 20 -1 33 -8 l24 -12 -24 -14
c-13 -7 -30 -14 -38 -15 -8 -2 -18 -9 -22 -16 -5 -7 -9 -9 -9 -4 0 5 -7 2 -16
-5 -9 -7 -23 -14 -32 -15 -8 -2 -18 -8 -22 -14 -4 -7 -10 -11 -14 -10 -4 0
-14 -6 -22 -15 -14 -13 -14 -15 0 -15 9 0 16 -4 16 -9 0 -5 14 -14 30 -21 17
-7 30 -17 30 -22 0 -6 7 -7 15 -4 9 3 18 0 21 -7 2 -7 28 -13 61 -15 32 -2 63
-8 69 -13 6 -5 14 -6 17 -3 12 12 157 15 157 4 0 -6 5 -8 11 -4 6 4 47 8 91
10 58 3 83 0 93 -10 8 -7 11 -16 8 -20 -4 -3 -1 -6 5 -6 7 0 12 -7 12 -15 0
-8 5 -15 10 -15 6 0 10 -7 10 -15 0 -8 5 -15 11 -15 5 0 7 -4 4 -10 -3 -5 -1
-10 4 -10 6 0 11 -5 11 -11 0 -6 8 -23 18 -37 28 -40 34 -62 16 -55 -8 3 -14
2 -12 -3 4 -15 -13 -54 -23 -54 -5 0 -8 -3 -8 -7 3 -18 -2 -36 -8 -30 -6 6
-45 -57 -59 -95 -3 -10 -10 -18 -15 -18 -5 0 -8 -3 -7 -7 3 -15 -14 -43 -23
-37 -5 3 -6 -2 -3 -10 3 -9 1 -16 -6 -16 -6 0 -8 -4 -5 -10 3 -5 1 -10 -4 -10
-6 0 -11 -7 -11 -16 0 -9 -5 -12 -12 -8 -6 4 -8 3 -5 -3 4 -6 -2 -22 -13 -36
-11 -14 -20 -28 -20 -31 0 -9 -53 -90 -65 -98 -5 -4 -6 -8 -1 -8 5 0 2 -8 -6
-17 -8 -10 -15 -25 -15 -33 0 -8 -3 -34 -7 -57 -4 -24 -4 -43 1 -43 5 0 10 -9
11 -20 4 -42 6 -49 13 -45 3 3 9 -4 12 -14 4 -16 12 -19 48 -16 155 12 204 17
211 21 4 3 13 -6 19 -20 11 -23 15 -24 83 -20 39 2 94 6 121 9 71 8 109 13
119 14 5 0 7 4 3 7 -3 3 5 16 18 29 14 12 22 25 18 28 -3 4 -1 7 6 7 7 0 10 4
7 8 -2 4 15 29 40 55 24 26 41 47 37 47 -5 0 -1 6 8 13 8 7 27 35 41 64 14 29
29 49 33 45 4 -4 5 2 3 13 -2 14 3 21 20 23 12 2 22 -2 22 -8 0 -6 5 -8 10 -5
6 3 10 2 10 -4 0 -6 7 -8 15 -5 8 4 21 2 28 -4 12 -10 83 -27 105 -25 6 0 12
-4 12 -11 0 -6 5 -4 10 4 7 11 10 11 10 2 0 -7 5 -10 10 -7 6 3 10 1 10 -6 0
-7 3 -9 6 -6 4 3 16 2 27 -4 15 -9 18 -8 12 2 -6 8 -4 10 6 3 8 -4 24 -7 36
-5 13 1 28 -1 35 -5 18 -12 48 -12 48 -1 0 5 6 4 13 -2 8 -6 17 -8 20 -4 8 8
42 12 124 15 35 2 63 7 63 11 0 5 7 1 16 -7 8 -9 19 -14 23 -12 4 3 29 6 57 7
27 1 55 6 62 12 8 6 12 6 12 -2 0 -7 8 -8 26 -1 14 6 23 6 19 1 -3 -6 8 -6 27
-1 18 5 66 11 106 15 40 3 83 10 96 15 13 5 27 6 30 3 3 -4 6 -2 6 4 0 6 10
10 23 9 25 -1 58 -26 51 -38 -3 -4 -1 -8 5 -8 5 0 13 -9 16 -20 3 -11 13 -20
21 -20 8 0 14 -8 14 -19 0 -10 14 -32 30 -49 17 -18 30 -36 30 -42 0 -5 5 -10
11 -10 5 0 7 -4 4 -10 -3 -5 -1 -10 4 -10 6 0 11 -6 11 -13 0 -7 9 -19 20 -27
11 -8 20 -20 20 -27 0 -7 5 -13 12 -13 6 0 9 -3 5 -6 -3 -3 5 -17 18 -30 22
-22 30 -23 82 -18 32 3 69 7 83 8 28 1 76 -36 86 -67 3 -11 9 -16 13 -11 3 5
22 10 41 11 103 5 159 11 169 17 6 4 11 4 11 1 0 -3 6 0 14 7 9 9 11 19 5 30
-6 11 -5 19 2 24 7 4 9 25 7 55 -3 27 -1 46 4 43 5 -3 6 28 3 74 -10 136 -14
165 -26 173 -7 4 -9 19 -7 33 3 14 2 26 -2 26 -4 0 -6 12 -5 28 1 15 -3 30 -8
34 -6 3 -12 26 -14 49 -3 24 -9 51 -14 61 -5 10 -11 39 -14 64 -2 26 -8 50
-14 53 -12 8 -11 51 2 51 4 0 6 4 3 9 -3 4 10 21 29 37 19 16 35 35 35 41 0 7
4 13 9 13 5 0 12 11 15 25 4 14 10 23 15 20 5 -2 12 7 15 20 4 14 11 23 16 20
9 -5 12 7 9 31 0 3 8 12 18 20 10 7 15 14 11 14 -4 0 6 29 22 64 15 35 26 67
23 70 -4 3 -1 6 5 6 6 0 9 9 7 20 -2 11 0 20 5 20 5 0 7 7 4 15 -4 8 -1 15 5
15 6 0 10 3 10 8 -3 19 2 33 10 28 5 -4 7 3 4 14 -3 12 0 20 6 20 7 0 9 5 6
10 -3 6 -2 10 4 10 5 0 12 12 16 28 7 33 35 68 55 69 165 9 222 20 253 49 14
13 30 24 36 24 5 0 3 12 -4 28 -8 15 -13 41 -11 59 1 18 0 31 -2 29 -5 -6 -38
28 -44 44 -2 7 -18 14 -36 15 -20 2 -29 -1 -25 -8 3 -6 -4 -3 -16 5 -16 11
-32 14 -55 8 -18 -4 -41 -3 -51 2 -9 6 -28 8 -41 5 -14 -2 -29 2 -36 11 -11
13 -11 14 2 7 12 -7 13 -6 4 6 -5 8 -11 37 -12 64 -3 57 -5 70 -19 105 -6 14
-9 33 -7 43 1 9 -2 17 -7 17 -6 0 -7 5 -4 10 3 6 1 10 -5 10 -6 0 -8 5 -5 10
3 6 2 10 -3 10 -6 0 -8 9 -5 20 3 12 0 20 -6 20 -7 0 -9 5 -6 10 3 6 1 10 -5
10 -7 0 -10 6 -7 14 3 8 -1 17 -9 20 -8 3 -14 15 -14 26 0 11 -5 20 -11 20 -5
0 -7 5 -4 10 3 6 -1 13 -9 16 -9 3 -14 10 -11 14 3 5 1 11 -5 15 -6 4 -8 10
-5 15 3 4 -2 11 -11 14 -8 3 -13 10 -10 15 3 5 -1 12 -10 15 -9 4 -15 9 -12
12 3 2 -12 24 -33 47 -22 23 -39 48 -39 54 0 7 -7 13 -15 13 -8 0 -15 3 -15 8
0 4 -20 29 -45 56 -25 27 -45 43 -45 36 0 -9 -5 -7 -16 6 -8 10 -12 13 -8 5 5
-9 3 -12 -4 -7 -7 4 -12 15 -12 24 0 13 -2 14 -8 4 -8 -12 -12 -10 -69 38 -7
5 -17 10 -22 10 -6 0 -20 8 -31 18 -11 9 -24 17 -29 17 -4 0 -15 8 -25 18 -16
16 -30 21 -48 18 -5 0 -8 4 -8 10 0 6 -6 9 -14 6 -8 -3 -17 1 -20 10 -4 8 -13
13 -21 9 -8 -3 -15 -1 -15 5 0 6 -4 8 -9 4 -5 -3 -12 -1 -15 4 -4 5 -17 8 -31
6 -14 -1 -25 2 -25 6 0 5 -6 9 -14 9 -17 0 -48 39 -40 52 3 4 1 8 -5 8 -5 0
-12 18 -16 40 -4 22 -10 42 -15 45 -5 3 -7 16 -5 30 1 14 -1 25 -6 25 -9 0
-24 59 -20 79 1 8 -3 17 -10 22 -7 4 -14 22 -15 40 -2 17 -8 35 -15 39 -6 4
-8 13 -5 19 4 6 3 11 -2 11 -5 0 -7 11 -4 25 2 15 0 25 -7 25 -6 0 -11 14 -11
30 0 20 -5 30 -15 30 -8 0 -15 5 -15 12 0 6 -3 8 -7 5 -3 -4 -12 -2 -19 4 -8
6 -21 9 -29 5 -8 -3 -15 -1 -15 5 0 6 -4 7 -10 4 -5 -3 -10 -1 -10 6 0 9 -3 9
-14 0 -10 -8 -16 -9 -21 -1 -3 6 -11 8 -16 5 -5 -4 -9 -2 -9 2 0 5 -12 10 -27
11 -15 1 -29 5 -32 10 -11 13 -31 12 -31 -2z m505 -1098 c4 4 6 0 3 -8 -5 -16
14 -40 32 -40 6 0 9 -4 5 -9 -3 -5 4 -16 16 -25 12 -8 18 -19 15 -25 -6 -10
32 -37 47 -33 4 1 7 -6 7 -17 0 -10 11 -26 24 -37 14 -10 23 -21 20 -26 -3 -4
-2 -8 3 -8 14 0 35 -60 37 -106 0 -24 5 -44 10 -44 5 0 3 -6 -3 -14 -7 -9 -8
-17 -2 -20 19 -12 0 -42 -27 -44 -15 -1 -44 -3 -64 -5 -24 -3 -42 1 -49 9 -6
8 -8 14 -4 14 4 0 1 10 -7 23 -7 12 -15 38 -17 57 -2 19 -6 37 -10 40 -5 3 -8
12 -8 20 -2 57 -9 90 -18 90 -6 0 -11 15 -10 33 1 17 -5 45 -12 60 -8 15 -11
32 -8 37 3 6 2 10 -4 10 -6 0 -8 6 -5 14 3 8 1 17 -5 21 -6 3 -11 20 -11 37
l0 31 19 -21 c10 -12 22 -18 26 -14z m-1175 -9 c-6 -10 -15 -19 -20 -19 -5 0
-7 -7 -4 -15 4 -8 1 -15 -6 -15 -6 0 -8 -4 -5 -10 3 -5 1 -10 -4 -10 -6 0 -11
-6 -11 -14 0 -7 -7 -19 -15 -26 -9 -7 -14 -19 -11 -26 3 -8 -5 -20 -17 -29
-12 -8 -18 -15 -13 -15 5 0 3 -7 -4 -15 -7 -8 -9 -15 -4 -15 5 0 5 -4 -1 -8
-12 -9 -59 -104 -57 -114 1 -5 -3 -8 -8 -8 -5 0 -10 -7 -10 -16 0 -9 -5 -12
-12 -8 -7 4 -8 3 -4 -4 4 -7 4 -18 -1 -24 -4 -7 -8 -16 -8 -19 0 -15 -55 -72
-62 -64 -5 4 -2 10 5 12 6 3 12 20 12 39 0 20 4 33 9 30 10 -7 9 20 -1 30 -4
3 2 20 12 37 11 17 17 34 14 39 -3 4 0 8 6 8 6 0 8 5 5 10 -3 6 -1 10 4 10 6
0 11 9 11 19 0 11 5 23 10 26 6 4 8 10 5 15 -3 4 2 13 10 20 8 7 15 19 15 26
0 8 5 14 10 14 6 0 15 11 20 24 12 33 50 76 67 76 7 0 13 4 13 9 0 14 44 60
52 55 5 -3 3 -14 -2 -25z m549 -300 c-9 -5 -10 -9 -2 -9 6 0 10 -13 9 -31 -1
-16 1 -32 4 -34 4 -2 5 -20 4 -39 -2 -20 1 -36 5 -36 13 0 0 -50 -13 -51 -6
-1 -24 -3 -41 -4 -16 -2 -30 -4 -30 -5 0 -1 -8 -3 -18 -5 -22 -4 -35 24 -17
35 7 4 10 12 6 18 -3 5 1 15 9 22 8 7 15 19 15 26 0 8 5 14 10 14 6 0 9 3 9 8
-1 4 0 10 1 15 1 4 3 10 4 15 6 27 40 81 48 76 6 -4 5 -10 -3 -15z m131 -579
c0 -5 -6 -10 -12 -10 -9 0 -8 -3 2 -10 8 -5 11 -12 7 -16 -4 -4 -1 -14 5 -21
7 -8 14 -35 16 -59 2 -24 9 -56 17 -70 7 -15 11 -33 8 -40 -3 -8 0 -14 6 -14
6 0 11 -7 11 -15 0 -9 7 -27 16 -40 9 -14 12 -25 8 -25 -5 0 -3 -4 4 -9 7 -4
15 -30 18 -57 2 -27 6 -62 8 -79 4 -35 -2 -57 -15 -49 -5 3 -9 0 -9 -5 0 -6
-8 -11 -17 -11 -10 0 -31 -7 -47 -15 -16 -9 -36 -13 -43 -11 -7 3 -13 2 -13
-3 0 -5 -18 -13 -40 -19 -25 -6 -40 -6 -40 0 0 5 -7 2 -16 -6 -8 -9 -23 -16
-32 -17 -9 -1 -29 -2 -44 -3 -16 -2 -28 0 -28 4 0 4 -11 6 -25 5 -14 -2 -25 1
-25 7 0 6 -8 8 -19 5 -10 -2 -27 0 -37 6 -10 6 -30 13 -44 15 -13 2 -30 8 -37
14 -7 6 -13 7 -13 3 0 -4 -7 -2 -15 5 -8 7 -15 9 -15 5 0 -4 -6 -3 -12 2 -7 6
-34 16 -60 24 -27 7 -48 17 -48 21 0 4 -7 8 -15 8 -9 0 -27 7 -40 16 l-24 16
26 51 c15 29 27 56 28 60 0 4 6 12 14 16 7 5 11 13 7 19 -3 5 1 15 10 22 8 7
13 19 10 27 -3 8 -2 12 2 9 5 -3 15 10 22 29 8 19 18 35 22 35 5 0 7 4 4 9 -6
9 30 61 51 74 7 4 13 15 13 23 0 8 4 13 9 9 5 -3 12 -1 16 5 4 6 11 8 16 5 5
-4 12 0 14 7 4 9 21 14 50 13 25 0 45 2 45 6 0 3 12 5 28 4 15 -1 30 3 34 8 3
6 32 12 63 13 31 2 59 4 60 6 9 9 115 7 115 -2z"/>
<path d="M1088 1170 c-20 -4 -48 -6 -62 -5 -14 0 -26 -3 -26 -7 0 -4 -9 -8
-20 -8 -11 0 -20 -4 -20 -10 0 -5 -7 -6 -17 -3 -11 4 -14 3 -9 -5 4 -7 1 -12
-7 -12 -17 0 -65 -67 -73 -101 -9 -36 -12 -490 -4 -524 4 -16 9 -37 11 -45 2
-8 14 -26 27 -40 12 -13 22 -28 22 -32 0 -5 7 -8 15 -8 8 0 15 -5 15 -12 0 -6
3 -8 6 -5 4 3 16 1 28 -5 27 -15 156 -20 173 -7 7 6 16 8 21 5 6 -3 15 1 22 9
7 8 17 15 22 15 6 0 28 14 50 31 34 27 53 56 63 92 2 4 3 8 5 10 7 9 18 97 19
156 1 24 4 41 9 37 4 -4 7 -85 7 -179 l0 -172 73 -1 c39 0 72 3 72 8 0 4 6 8
13 8 15 0 15 0 19 78 2 28 0 52 -4 52 -4 0 -4 10 0 22 4 13 7 49 6 80 -1 32 2
60 7 63 5 4 6 -1 3 -9 -3 -9 -1 -16 5 -16 6 0 10 -3 9 -7 -1 -5 5 -21 12 -38
7 -16 12 -36 11 -42 -1 -7 3 -13 9 -13 5 0 10 -4 10 -9 0 -5 5 -22 12 -38 6
-15 12 -30 13 -33 18 -63 66 -125 84 -107 8 8 11 8 11 0 0 -20 78 17 85 41 9
25 9 26 -1 50 -6 15 -4 17 6 11 9 -6 11 -4 5 5 -13 20 -13 100 -1 100 6 0 5 4
-3 9 -9 6 -10 11 -2 15 8 5 8 13 1 26 -13 25 -13 33 3 24 9 -6 9 -5 0 7 -10
12 -10 18 -1 27 7 7 8 12 2 12 -5 0 -10 9 -11 20 -1 13 2 18 10 13 9 -5 9 -3
0 8 -10 12 -10 18 -1 27 7 7 8 12 2 12 -5 0 -10 9 -11 20 -1 11 2 18 8 15 5
-4 6 3 0 17 -5 13 -5 33 0 46 5 12 5 22 1 22 -9 0 -8 62 1 77 4 6 3 14 -3 18
-5 3 -10 11 -10 16 0 6 4 8 8 5 5 -3 9 1 9 9 0 8 -4 15 -8 15 -5 0 -4 11 1 25
6 15 6 26 0 30 -7 4 -6 13 0 25 7 13 6 20 -3 23 -9 3 -9 7 1 20 11 13 10 16
-5 21 -10 3 -27 4 -38 2 -11 -2 -32 0 -47 5 -16 4 -30 3 -34 -2 -3 -5 -9 -7
-14 -4 -19 12 -26 -29 -25 -163 l0 -142 -19 37 c-11 21 -19 44 -17 52 1 8 -2
10 -10 5 -7 -4 -10 -3 -6 3 4 6 -3 30 -15 54 -12 24 -21 50 -21 57 0 6 -4 12
-9 12 -4 0 -8 8 -8 19 0 29 -58 80 -84 74 -11 -2 -33 -5 -48 -6 -16 0 -28 -5
-28 -10 0 -5 -6 -7 -12 -4 -9 3 -13 -6 -14 -24 -1 -16 3 -26 7 -23 5 3 5 -5 1
-18 -4 -13 -7 -65 -7 -115 1 -51 -2 -93 -7 -93 -4 0 -8 17 -9 38 -1 46 -5 80
-14 112 -4 14 -7 31 -7 38 -1 6 -5 12 -10 12 -4 0 -8 5 -8 10 0 6 -11 23 -25
38 -14 15 -25 23 -25 19 0 -4 -10 1 -22 12 -11 11 -24 19 -27 17 -3 -3 -24 -1
-46 3 -22 4 -57 4 -77 1z m54 -175 c0 -8 1 -21 2 -27 1 -7 6 -16 11 -20 6 -5
6 -8 -1 -8 -6 0 -11 -7 -11 -15 0 -8 4 -15 9 -15 5 0 6 -6 1 -12 -4 -7 -6 -48
-5 -91 1 -48 -2 -76 -8 -72 -6 3 -7 -1 -4 -9 3 -9 11 -13 17 -9 6 4 7 1 1 -8
-12 -19 -11 -119 1 -119 6 0 4 -4 -2 -8 -7 -4 -11 -18 -8 -30 2 -12 0 -24 -5
-27 -5 -3 -7 -14 -5 -24 3 -18 1 -19 -33 -6 -20 7 -36 18 -34 24 1 6 -3 11 -9
11 -7 0 -10 12 -7 30 3 17 0 30 -6 30 -7 0 -7 3 -1 8 11 7 16 52 6 52 -3 0 -6
23 -6 50 0 28 3 50 6 50 3 0 3 20 -1 45 -4 25 -5 47 -2 50 3 2 6 37 6 77 1 40
7 83 14 96 12 21 14 21 42 7 17 -9 31 -22 32 -30z m222 -161 c-3 -17 -1 -23 7
-19 8 6 8 2 0 -12 -6 -11 -7 -23 -4 -27 3 -3 2 -6 -3 -6 -6 0 -10 20 -10 45
-1 25 3 45 7 45 4 0 6 -12 3 -26z m3 -104 c1 -11 -2 -20 -8 -20 -10 0 -12 23
-2 33 9 9 9 10 10 -13z"/>
<path d="M2088 1165 c-2 -2 -15 -6 -29 -8 -20 -3 -23 -9 -20 -33 2 -16 4 -38
5 -49 0 -11 7 -24 14 -28 7 -5 9 -13 6 -19 -5 -7 -2 -8 7 -2 14 8 32 8 75 -1
20 -5 21 -8 20 -342 l0 -338 22 2 c12 2 22 -2 22 -8 0 -8 4 -8 13 0 10 8 17 7
27 -2 9 -9 11 -9 6 0 -4 8 1 11 14 10 11 -1 20 -4 20 -8 0 -4 11 -2 24 4 14 7
22 19 21 32 -1 11 2 28 7 37 5 10 3 18 -5 21 -9 3 -9 7 0 17 7 8 8 22 3 41 -5
17 -5 31 1 35 6 4 6 11 -2 20 -9 11 -9 14 1 14 9 0 9 4 2 13 -7 8 -7 18 -2 27
5 8 5 21 0 31 -5 9 -6 19 -3 23 9 9 13 36 5 36 -9 0 -7 63 2 78 3 6 2 13 -3
16 -10 7 -9 25 2 44 5 7 3 12 -4 12 -8 0 -8 4 -1 13 7 8 7 18 2 27 -5 9 -5 19
2 27 7 9 7 13 -1 13 -7 0 -9 5 -4 13 10 17 13 37 4 37 -6 0 -7 15 -2 51 1 3 7
6 14 7 16 1 91 10 97 11 3 1 5 26 5 56 0 50 -3 57 -22 62 -13 3 -29 3 -35 0
-7 -2 -22 -1 -33 3 -11 4 -28 4 -37 -1 -10 -5 -19 -5 -23 0 -3 6 -17 6 -35 1
-17 -5 -30 -5 -30 0 0 5 -7 7 -15 4 -24 -10 -109 -11 -121 -2 -6 4 -13 6 -16
3z"/>
<path d="M2482 1154 c-7 -7 -8 -15 -3 -19 10 -6 9 -24 -2 -42 -5 -7 -5 -13 0
-13 4 0 8 -16 8 -35 0 -19 -4 -35 -9 -35 -5 0 -4 -6 2 -13 7 -8 7 -18 2 -27
-5 -8 -6 -19 -2 -24 9 -16 10 -46 0 -52 -4 -3 -5 -11 -1 -17 11 -18 11 -47 0
-47 -5 0 -5 -6 2 -13 8 -10 7 -17 -1 -25 -7 -7 -8 -12 -2 -12 5 0 10 -9 10
-20 0 -11 -3 -20 -6 -20 -3 0 -4 -17 -2 -37 1 -21 4 -55 5 -75 2 -21 -1 -38
-6 -38 -5 0 -5 -6 1 -13 7 -8 7 -18 2 -27 -5 -8 -5 -21 1 -31 6 -11 5 -20 -1
-24 -6 -4 -6 -15 0 -30 7 -17 6 -25 -1 -25 -8 0 -8 -4 -1 -13 6 -7 7 -18 2
-26 -13 -22 10 -63 32 -58 10 3 18 2 18 -1 0 -4 40 -5 90 -2 50 3 90 1 90 -3
0 -4 9 -3 20 3 14 8 20 8 20 0 0 -7 6 -8 19 0 11 6 21 6 23 1 2 -5 12 -3 23 6
13 10 16 17 8 20 -8 3 -9 13 -3 34 5 18 5 29 -1 29 -6 0 -7 6 -1 17 11 18 -11
49 -27 39 -5 -4 -12 0 -14 6 -4 10 -6 10 -6 0 -1 -10 -6 -10 -21 -2 -14 8 -20
8 -20 0 0 -6 -5 -8 -12 -3 -7 4 -26 8 -43 8 l-30 0 0 99 c0 112 -8 103 94 109
l46 3 -2 55 c0 29 -2 59 -2 64 -1 6 -22 11 -48 12 -93 4 -88 -1 -88 99 0 54 4
88 10 87 6 -1 16 3 23 9 8 7 12 7 12 -3 0 -9 3 -10 11 -2 6 6 25 7 48 3 46 -8
67 -1 66 25 0 11 3 25 8 32 4 6 4 14 -1 17 -5 3 -8 16 -7 30 3 20 -2 25 -28
29 -18 2 -33 1 -35 -3 -2 -4 -18 -4 -36 0 -19 4 -40 4 -46 0 -7 -4 -27 -4 -44
1 -17 5 -32 5 -34 1 -1 -5 -24 -6 -50 -2 -33 4 -52 2 -60 -6z"/>
<path d="M2868 1156 c-3 -9 -2 -723 1 -793 1 -16 6 -21 21 -18 11 2 20 -1 20
-7 0 -7 4 -7 13 -1 6 6 30 9 52 7 21 -2 42 0 45 5 3 5 5 84 4 175 0 92 3 169
7 171 16 10 39 -8 39 -32 0 -13 4 -32 10 -42 5 -10 11 -29 14 -42 11 -53 40
-144 47 -147 4 -2 5 -10 2 -18 -3 -8 1 -22 8 -31 10 -11 10 -14 2 -9 -9 5 -11
2 -7 -9 4 -8 18 -18 33 -21 14 -3 32 -7 39 -10 6 -2 12 0 12 5 0 4 7 8 15 8 8
0 15 -4 15 -9 0 -5 8 -4 19 1 10 6 22 7 26 3 4 -4 4 7 0 23 -4 17 -8 38 -9 48
0 9 -4 17 -8 17 -4 0 -5 9 -3 20 2 11 0 18 -6 15 -5 -4 -9 8 -9 24 0 17 -4 31
-9 31 -4 0 -7 11 -6 25 2 14 -1 25 -6 25 -4 0 -6 7 -3 15 4 8 2 15 -3 15 -5 0
-10 11 -11 26 -1 14 -6 34 -12 44 -18 33 -11 70 16 95 15 14 23 25 19 25 -5 0
2 12 16 27 13 14 17 22 9 18 -13 -8 -13 -7 -1 8 7 9 11 17 7 17 -3 0 -1 11 4
24 6 17 5 26 -3 30 -8 3 -9 5 -1 5 8 1 9 12 4 36 -4 19 -6 35 -3 35 3 0 -1 8
-8 17 -10 12 -10 15 -1 9 7 -4 -1 14 -17 41 -15 26 -34 47 -40 46 -6 -2 -10 3
-8 9 1 7 -8 14 -21 16 -12 2 -20 8 -17 13 4 5 0 9 -7 10 -52 3 -90 8 -95 13
-4 3 -12 1 -20 -5 -7 -6 -13 -8 -13 -3 0 13 -168 13 -172 0z m213 -136 c6 0 7
5 4 11 -4 6 2 5 13 -2 12 -7 19 -16 16 -20 -2 -4 1 -9 6 -11 10 -3 14 -34 11
-84 -2 -33 -36 -65 -72 -67 l-33 -2 -1 92 c-1 86 1 92 20 95 11 2 22 0 23 -4
2 -5 8 -8 13 -8z"/>
<path d="M3374 1158 c-3 -5 -10 -5 -16 -2 -7 4 -8 2 -4 -4 4 -7 4 -12 -1 -12
-4 0 -8 -43 -8 -95 0 -52 4 -95 9 -95 5 0 3 -7 -4 -15 -10 -12 -10 -15 1 -15
11 0 11 -3 -1 -11 -12 -8 -12 -12 -2 -16 10 -4 10 -8 1 -19 -9 -11 -8 -14 2
-14 11 0 11 -3 -1 -11 -12 -8 -12 -12 -2 -16 10 -4 10 -8 1 -19 -9 -11 -8 -14
2 -14 11 0 11 -2 -1 -10 -12 -8 -13 -11 -1 -19 7 -5 9 -11 4 -14 -9 -5 -8 -90
2 -114 2 -7 1 -13 -3 -13 -9 0 -8 -53 1 -67 4 -6 1 -14 -5 -16 -10 -4 -9 -8 2
-16 10 -7 11 -11 3 -11 -9 0 -10 -7 -3 -25 7 -18 6 -25 -3 -25 -8 0 -8 -3 2
-9 11 -7 11 -9 0 -14 -12 -5 -12 -7 0 -15 10 -7 10 -11 1 -17 -9 -6 -9 -10 1
-16 10 -6 10 -9 2 -9 -14 0 -1 -45 13 -45 5 0 15 -4 22 -9 7 -4 19 -3 27 4 10
8 15 9 15 2 0 -10 18 -10 72 1 20 4 36 17 22 17 -12 0 -12 59 -1 77 4 6 4 14
-1 17 -11 6 -9 57 3 75 5 9 4 12 -1 8 -6 -3 -10 11 -10 34 0 21 4 39 8 39 5 0
6 6 1 12 -11 19 -13 68 -2 68 5 0 11 0 14 0 3 0 5 -2 5 -5 0 -3 6 -18 13 -33
8 -15 13 -35 12 -44 -2 -10 1 -18 7 -18 6 0 8 -7 5 -15 -4 -8 -2 -17 3 -20 6
-4 10 -19 10 -36 0 -16 5 -29 11 -29 6 0 9 -9 6 -20 -3 -11 -1 -20 4 -20 5 0
8 -3 7 -7 -1 -5 4 -27 10 -49 12 -40 34 -60 52 -49 5 3 11 1 15 -5 4 -6 11 -8
16 -4 17 10 59 12 65 2 3 -4 10 -6 15 -2 16 9 89 10 89 1 0 -5 5 -5 12 -1 7 4
25 8 40 9 26 1 54 15 31 15 -8 0 -7 15 3 45 7 25 13 46 13 48 -3 14 16 77 23
77 5 0 6 -6 2 -12 -6 -10 -4 -10 7 0 22 21 55 14 68 -14 6 -14 9 -29 6 -34 -3
-5 -1 -11 4 -15 5 -3 8 -14 6 -25 -2 -11 1 -20 7 -20 6 0 9 -3 5 -6 -8 -9 22
-66 31 -60 5 3 14 1 22 -4 9 -5 19 -5 27 2 9 7 13 7 13 -1 0 -9 5 -9 21 0 16
8 23 8 29 0 9 -16 40 -2 40 18 0 9 -7 40 -14 69 -8 29 -15 55 -15 57 -1 3 -1
6 -2 8 0 2 -6 33 -13 82 -2 11 -5 20 -6 20 -1 0 -4 9 -6 20 -1 11 -5 29 -7 40
-19 77 -24 105 -19 110 3 3 1 5 -4 5 -6 0 -11 10 -12 23 0 12 -4 36 -7 52 -4
17 -7 38 -8 48 -1 9 -5 17 -10 17 -4 0 -6 3 -3 8 2 4 -2 33 -9 65 -7 31 -11
57 -8 57 3 0 0 7 -7 15 -7 8 -10 21 -7 30 4 8 2 17 -4 21 -6 3 -8 12 -5 20 6
16 -29 38 -48 31 -7 -3 -18 -2 -25 2 -7 5 -30 5 -51 1 -24 -4 -43 -3 -49 3 -6
6 -11 7 -12 2 0 -6 -2 -17 -4 -25 -2 -8 -6 -31 -9 -50 -4 -19 -9 -42 -11 -50
-2 -8 -7 -31 -10 -50 -3 -19 -10 -49 -14 -67 -5 -17 -6 -34 -3 -37 3 -3 1 -6
-4 -6 -6 0 -9 -13 -8 -30 1 -16 -2 -30 -6 -30 -5 0 -7 -9 -5 -20 2 -11 1 -20
-3 -20 -4 0 -8 -8 -8 -17 -1 -21 -13 -91 -19 -113 -2 -8 -7 -27 -10 -42 -3
-16 -8 -40 -11 -55 -3 -16 -6 -36 -7 -45 -1 -10 -5 -18 -9 -18 -4 0 -5 -9 -3
-20 2 -11 -2 -20 -8 -20 -7 0 -13 10 -14 22 -1 11 -8 25 -15 29 -10 7 -10 9 2
9 13 0 13 1 0 10 -8 5 -11 10 -6 10 5 0 4 6 -1 12 -6 7 -9 21 -8 31 2 9 -1 17
-7 17 -6 0 -8 7 -5 15 4 8 2 17 -4 20 -5 4 -7 10 -4 15 3 5 1 11 -5 15 -6 4
-8 10 -5 15 3 5 1 11 -5 15 -5 3 -10 11 -10 16 0 6 4 8 9 5 4 -3 6 6 3 19 -2
15 0 25 7 25 6 0 11 6 11 13 0 7 9 18 21 25 12 7 18 16 15 19 -3 4 -1 12 5 19
18 21 23 127 9 170 -17 51 -59 114 -76 114 -8 0 -14 5 -14 10 0 6 -9 10 -20
10 -11 0 -20 5 -20 10 0 6 -13 10 -28 10 -16 0 -32 3 -36 7 -10 11 -206 11
-212 1z m206 -133 c4 3 15 -10 23 -28 16 -34 14 -91 -4 -113 -6 -8 -8 -14 -3
-15 11 0 -34 -19 -58 -24 -9 -2 -19 3 -22 11 -3 8 -1 14 5 14 6 0 6 7 -1 20
-8 14 -8 20 0 20 6 0 8 5 4 12 -6 9 -8 56 -5 97 1 12 45 19 49 8 2 -4 7 -5 12
-2z m463 -316 c4 -18 1 -26 -9 -26 -9 0 -13 6 -9 14 3 8 5 22 5 30 0 23 8 12
13 -18z"/>
</g>
</svg>
