<svg width="584" height="228" viewBox="0 0 584 228" fill="none" xmlns="http://www.w3.org/2000/svg">
<g clip-path="url(#clip0_119_3433)">
<rect width="584" height="228" fill="#1C1C1C"/>
<rect width="584" height="228" rx="4" fill="#1C1C1C"/>
<path d="M215.022 79.8733C240.092 89.2239 260.715 107.682 272.777 131.566C284.839 155.449 287.453 183.002 280.098 208.728C272.743 234.454 255.96 256.462 233.096 270.36C210.233 284.259 182.97 289.027 156.746 283.713C130.522 278.4 107.266 263.395 91.6163 241.692C75.9666 219.989 69.0742 193.184 72.3141 166.625C75.554 140.065 88.6879 115.703 109.096 98.3988C129.504 81.0947 155.685 72.1204 182.417 73.2665L177.863 179.5L215.022 79.8733Z" fill="#3666E3" stroke="#E8E8E8" stroke-width="1.93548"/>
<path d="M206.29 69.5441C232.471 74.9062 255.88 89.4342 272.305 110.515C288.731 131.595 297.096 157.845 295.895 184.542C294.695 211.24 284.007 236.633 265.756 256.154C247.505 275.675 222.887 288.043 196.33 291.034C169.774 294.024 143.021 287.441 120.886 272.468C98.7496 257.495 82.6826 235.115 75.5745 209.353C68.4664 183.591 70.7836 156.139 82.1095 131.933C93.4353 107.727 113.026 88.3572 137.359 77.3066L183.77 179.5L206.29 69.5441Z" fill="#36E35C" stroke="#E8E8E8" stroke-width="1.93548"/>
<path d="M200.633 64.0582C226.252 69.6359 249.289 83.5774 266.114 103.687C282.938 123.797 292.596 148.932 293.565 175.134C294.534 201.336 286.759 227.116 271.466 248.413C256.172 269.71 234.228 285.315 209.09 292.77C183.953 300.225 157.049 299.105 132.617 289.589C108.186 280.072 87.6139 262.698 74.142 240.204C60.67 217.71 55.0635 191.374 58.2054 165.343C61.3472 139.312 73.059 115.066 91.496 96.4229L175.5 179.5L200.633 64.0582Z" fill="#E3D236" stroke="#E8E8E8" stroke-width="1.93548"/>
<path d="M175.5 49.5398C198.774 49.5398 221.622 55.7901 241.655 67.6378C261.688 79.4855 278.172 96.4957 289.385 116.891C300.598 137.287 306.127 160.319 305.396 183.582C304.665 206.845 297.7 229.485 285.229 249.136C272.758 268.788 255.238 284.729 234.501 295.296C213.763 305.862 190.568 310.665 167.34 309.204C144.111 307.743 121.701 300.07 102.451 286.988C83.2015 273.906 67.8181 255.894 57.9083 234.835L175.5 179.5V49.5398Z" fill="url(#paint0_radial_119_3433)" stroke="#E8E8E8" stroke-width="1.93548"/>
<path d="M175.5 43.6326C194.78 43.6326 213.839 47.7359 231.411 55.67C248.983 63.604 264.666 75.1871 277.416 89.6493C290.166 104.112 299.692 121.122 305.361 139.55C311.03 157.977 312.713 177.401 310.296 196.529C307.88 215.657 301.42 234.052 291.346 250.491C281.272 266.93 267.815 281.037 251.869 291.874C235.923 302.711 217.853 310.03 198.86 313.345C179.867 316.659 160.386 315.894 141.711 311.099L175.5 179.5V43.6326Z" fill="url(#paint1_radial_119_3433)" stroke="#E8E8E8" stroke-width="1.93548"/>
<path d="M175.5 37.7251C203.92 37.7251 231.684 46.2664 255.189 62.2407C278.695 78.2151 296.857 100.885 307.319 127.309C317.781 153.733 320.06 182.692 313.861 210.427C307.661 238.163 293.269 263.395 272.552 282.849L175.5 179.5V37.7251Z" fill="#E33636" stroke="#E8E8E8" stroke-width="1.93548"/>
<path d="M275.75 279.75C255.654 299.846 229.982 313.438 202.066 318.764C174.15 324.089 145.277 320.901 119.194 309.615C93.1119 298.328 71.0236 279.462 55.7955 255.467C40.5674 231.471 32.9024 203.453 33.7951 175.047L175.5 179.5L275.75 279.75Z" fill="#E336BD" stroke="#E8E8E8" stroke-width="1.93548"/>
<circle cx="175.5" cy="179.5" r="41.1897" fill="#E8E8E8" stroke="#E8E8E8" stroke-width="0.32258"/>
<circle cx="392" cy="88" r="4" fill="#3666E3"/>
<path d="M408.648 92.144C407.488 92.144 406.46 91.716 405.564 90.86L406.476 89.792C407.196 90.464 407.916 90.8 408.636 90.8C409.14 90.8 409.544 90.668 409.848 90.404C410.152 90.14 410.304 89.788 410.304 89.348V89.324C410.304 88.9 410.144 88.564 409.824 88.316C409.504 88.06 409.084 87.932 408.564 87.932C408.06 87.932 407.544 88.056 407.016 88.304L406.128 87.716L406.368 83.6H411.396V84.92H407.64L407.508 86.876C407.948 86.716 408.392 86.636 408.84 86.636C409.696 86.636 410.396 86.864 410.94 87.32C411.492 87.768 411.768 88.42 411.768 89.276V89.3C411.768 90.156 411.48 90.844 410.904 91.364C410.336 91.884 409.584 92.144 408.648 92.144ZM415.021 87.8C414.445 87.8 413.973 87.596 413.605 87.188C413.237 86.772 413.053 86.268 413.053 85.676V85.652C413.053 85.044 413.237 84.536 413.605 84.128C413.981 83.712 414.461 83.504 415.045 83.504C415.629 83.504 416.101 83.712 416.461 84.128C416.829 84.536 417.013 85.036 417.013 85.628V85.652C417.013 86.244 416.825 86.752 416.449 87.176C416.081 87.592 415.605 87.8 415.021 87.8ZM415.021 84.428C414.749 84.428 414.529 84.544 414.361 84.776C414.201 85 414.121 85.284 414.121 85.628V85.652C414.121 85.996 414.209 86.288 414.385 86.528C414.561 86.76 414.781 86.876 415.045 86.876C415.317 86.876 415.533 86.764 415.693 86.54C415.861 86.308 415.945 86.02 415.945 85.676V85.652C415.945 85.308 415.857 85.02 415.681 84.788C415.505 84.548 415.285 84.428 415.021 84.428ZM417.205 87.536L420.049 83.6H421.237L417.925 88.076L415.093 92H413.905L417.205 87.536ZM420.097 92.096C419.521 92.096 419.049 91.892 418.681 91.484C418.313 91.068 418.129 90.564 418.129 89.972V89.948C418.129 89.34 418.313 88.832 418.681 88.424C419.057 88.008 419.537 87.8 420.121 87.8C420.697 87.8 421.169 88.008 421.537 88.424C421.905 88.832 422.089 89.332 422.089 89.924V89.948C422.089 90.54 421.901 91.048 421.525 91.472C421.157 91.888 420.681 92.096 420.097 92.096ZM420.121 91.172C420.393 91.172 420.609 91.06 420.769 90.836C420.937 90.604 421.021 90.316 421.021 89.972V89.948C421.021 89.604 420.933 89.316 420.757 89.084C420.581 88.844 420.361 88.724 420.097 88.724C419.825 88.724 419.605 88.84 419.437 89.072C419.277 89.296 419.197 89.58 419.197 89.924V89.948C419.197 90.292 419.285 90.584 419.461 90.824C419.637 91.056 419.857 91.172 420.121 91.172ZM426.618 92L430.314 83.54H431.682L435.378 92H433.818L432.966 89.972H428.994L428.13 92H426.618ZM429.534 88.664H432.426L430.974 85.304L429.534 88.664ZM436.638 92V85.664H438.102V86.636C438.63 85.9 439.29 85.532 440.082 85.532C440.794 85.532 441.346 85.752 441.738 86.192C442.138 86.624 442.338 87.212 442.338 87.956V92H440.886V88.4C440.886 87.904 440.766 87.524 440.526 87.26C440.294 86.988 439.962 86.852 439.53 86.852C439.098 86.852 438.75 86.992 438.486 87.272C438.23 87.552 438.102 87.936 438.102 88.424V92H436.638ZM446.912 93.944C445.848 93.944 444.904 93.692 444.08 93.188L444.62 92.096C445.34 92.536 446.092 92.756 446.876 92.756C447.532 92.756 448.028 92.592 448.364 92.264C448.708 91.944 448.88 91.464 448.88 90.824V90.344C448.28 91.112 447.536 91.496 446.648 91.496C445.864 91.496 445.188 91.228 444.62 90.692C444.052 90.148 443.768 89.428 443.768 88.532V88.508C443.768 87.612 444.052 86.892 444.62 86.348C445.188 85.804 445.864 85.532 446.648 85.532C447.528 85.532 448.268 85.892 448.868 86.612V85.664H450.32V90.704C450.32 91.76 450.052 92.556 449.516 93.092C448.948 93.66 448.08 93.944 446.912 93.944ZM447.032 90.26C447.544 90.26 447.98 90.096 448.34 89.768C448.708 89.44 448.892 89.024 448.892 88.52V88.496C448.892 87.992 448.708 87.58 448.34 87.26C447.98 86.932 447.544 86.768 447.032 86.768C446.52 86.768 446.092 86.928 445.748 87.248C445.404 87.568 445.232 87.984 445.232 88.496V88.52C445.232 89.032 445.404 89.452 445.748 89.78C446.1 90.1 446.528 90.26 447.032 90.26ZM455.046 92.144C454.118 92.144 453.342 91.84 452.718 91.232C452.102 90.616 451.794 89.824 451.794 88.856V88.832C451.794 87.904 452.086 87.124 452.67 86.492C453.254 85.852 453.994 85.532 454.89 85.532C455.85 85.532 456.594 85.86 457.122 86.516C457.658 87.164 457.926 87.972 457.926 88.94C457.926 89.02 457.918 89.156 457.902 89.348H453.246C453.326 89.86 453.53 90.256 453.858 90.536C454.186 90.816 454.59 90.956 455.07 90.956C455.686 90.956 456.258 90.704 456.786 90.2L457.638 90.956C456.966 91.748 456.102 92.144 455.046 92.144ZM453.234 88.388H456.486C456.438 87.9 456.274 87.5 455.994 87.188C455.714 86.876 455.342 86.72 454.878 86.72C454.43 86.72 454.058 86.872 453.762 87.176C453.474 87.48 453.298 87.884 453.234 88.388ZM459.457 92V83.24H460.921V92H459.457ZM466.584 92V83.6H469.896C470.872 83.6 471.648 83.856 472.224 84.368C472.8 84.88 473.088 85.56 473.088 86.408V86.432C473.088 87.336 472.768 88.04 472.128 88.544C471.496 89.048 470.696 89.3 469.728 89.3H468.06V92H466.584ZM468.06 87.968H469.776C470.328 87.968 470.768 87.828 471.096 87.548C471.424 87.268 471.588 86.908 471.588 86.468V86.444C471.588 85.956 471.428 85.584 471.108 85.328C470.788 85.072 470.344 84.944 469.776 84.944H468.06V87.968ZM474.42 92V85.664H475.884V87.092C476.332 86.012 477.08 85.496 478.128 85.544V87.08H478.044C477.38 87.08 476.852 87.296 476.46 87.728C476.076 88.152 475.884 88.772 475.884 89.588V92H474.42ZM482.19 92.144C481.23 92.144 480.43 91.828 479.79 91.196C479.15 90.556 478.83 89.78 478.83 88.868V88.844C478.83 87.924 479.154 87.144 479.802 86.504C480.45 85.856 481.254 85.532 482.214 85.532C483.182 85.532 483.986 85.852 484.626 86.492C485.266 87.124 485.586 87.9 485.586 88.82V88.844C485.586 89.748 485.262 90.524 484.614 91.172C483.966 91.82 483.158 92.144 482.19 92.144ZM482.214 90.872C482.79 90.872 483.254 90.68 483.606 90.296C483.958 89.904 484.134 89.428 484.134 88.868V88.844C484.134 88.276 483.95 87.796 483.582 87.404C483.214 87.004 482.75 86.804 482.19 86.804C481.622 86.804 481.162 87 480.81 87.392C480.458 87.776 480.282 88.252 480.282 88.82V88.844C480.282 89.404 480.466 89.884 480.834 90.284C481.202 90.676 481.662 90.872 482.214 90.872ZM489.188 92.108C487.972 92.108 487.364 91.488 487.364 90.248V86.912H486.56V85.664H487.364V83.924H488.816V85.664H490.52V86.912H488.816V90.02C488.816 90.548 489.076 90.812 489.596 90.812C489.908 90.812 490.208 90.74 490.496 90.596V91.784C490.104 92 489.668 92.108 489.188 92.108ZM494.834 92.144C493.874 92.144 493.074 91.828 492.434 91.196C491.794 90.556 491.474 89.78 491.474 88.868V88.844C491.474 87.924 491.798 87.144 492.446 86.504C493.094 85.856 493.898 85.532 494.858 85.532C495.826 85.532 496.63 85.852 497.27 86.492C497.91 87.124 498.23 87.9 498.23 88.82V88.844C498.23 89.748 497.906 90.524 497.258 91.172C496.61 91.82 495.802 92.144 494.834 92.144ZM494.858 90.872C495.434 90.872 495.898 90.68 496.25 90.296C496.602 89.904 496.778 89.428 496.778 88.868V88.844C496.778 88.276 496.594 87.796 496.226 87.404C495.858 87.004 495.394 86.804 494.834 86.804C494.266 86.804 493.806 87 493.454 87.392C493.102 87.776 492.926 88.252 492.926 88.82V88.844C492.926 89.404 493.11 89.884 493.478 90.284C493.846 90.676 494.306 90.872 494.858 90.872ZM502.637 92.144C501.701 92.144 500.921 91.828 500.297 91.196C499.673 90.556 499.361 89.78 499.361 88.868V88.844C499.361 87.932 499.673 87.152 500.297 86.504C500.929 85.856 501.717 85.532 502.661 85.532C503.661 85.532 504.505 85.896 505.193 86.624L504.281 87.596C503.777 87.068 503.233 86.804 502.649 86.804C502.129 86.804 501.693 87 501.341 87.392C500.989 87.784 500.813 88.26 500.813 88.82V88.844C500.813 89.412 500.989 89.892 501.341 90.284C501.701 90.676 502.157 90.872 502.709 90.872C503.285 90.872 503.833 90.612 504.353 90.092L505.229 90.956C504.885 91.34 504.513 91.636 504.113 91.844C503.713 92.044 503.221 92.144 502.637 92.144ZM509.401 92.144C508.441 92.144 507.641 91.828 507.001 91.196C506.361 90.556 506.041 89.78 506.041 88.868V88.844C506.041 87.924 506.365 87.144 507.013 86.504C507.661 85.856 508.465 85.532 509.425 85.532C510.393 85.532 511.197 85.852 511.837 86.492C512.477 87.124 512.797 87.9 512.797 88.82V88.844C512.797 89.748 512.473 90.524 511.825 91.172C511.177 91.82 510.369 92.144 509.401 92.144ZM509.425 90.872C510.001 90.872 510.465 90.68 510.817 90.296C511.169 89.904 511.345 89.428 511.345 88.868V88.844C511.345 88.276 511.161 87.796 510.793 87.404C510.425 87.004 509.961 86.804 509.401 86.804C508.833 86.804 508.373 87 508.021 87.392C507.669 87.776 507.493 88.252 507.493 88.82V88.844C507.493 89.404 507.677 89.884 508.045 90.284C508.413 90.676 508.873 90.872 509.425 90.872ZM514.347 92V83.24H515.811V92H514.347Z" fill="white"/>
<circle cx="392" cy="116" r="4" fill="#36E35C"/>
<path d="M407.136 120V113.04L405.624 113.46L405.312 112.26L407.58 111.54H408.6V120H407.136ZM416.73 118.896C416.05 119.728 415.17 120.144 414.09 120.144C413.01 120.144 412.13 119.732 411.45 118.908C410.778 118.076 410.442 117.048 410.442 115.824V115.8C410.442 114.576 410.782 113.548 411.462 112.716C412.15 111.876 413.034 111.456 414.114 111.456C415.194 111.456 416.07 111.872 416.742 112.704C417.422 113.528 417.762 114.552 417.762 115.776V115.8C417.762 117.024 417.418 118.056 416.73 118.896ZM414.114 118.812C414.746 118.812 415.258 118.524 415.65 117.948C416.042 117.372 416.238 116.664 416.238 115.824V115.8C416.238 114.952 416.038 114.24 415.638 113.664C415.238 113.08 414.722 112.788 414.09 112.788C413.458 112.788 412.946 113.076 412.554 113.652C412.162 114.22 411.966 114.928 411.966 115.776V115.8C411.966 116.648 412.162 117.364 412.554 117.948C412.954 118.524 413.474 118.812 414.114 118.812ZM420.985 115.8C420.409 115.8 419.937 115.596 419.569 115.188C419.201 114.772 419.017 114.268 419.017 113.676V113.652C419.017 113.044 419.201 112.536 419.569 112.128C419.945 111.712 420.425 111.504 421.009 111.504C421.593 111.504 422.065 111.712 422.425 112.128C422.793 112.536 422.977 113.036 422.977 113.628V113.652C422.977 114.244 422.789 114.752 422.413 115.176C422.045 115.592 421.569 115.8 420.985 115.8ZM420.985 112.428C420.713 112.428 420.493 112.544 420.325 112.776C420.165 113 420.085 113.284 420.085 113.628V113.652C420.085 113.996 420.173 114.288 420.349 114.528C420.525 114.76 420.745 114.876 421.009 114.876C421.281 114.876 421.497 114.764 421.657 114.54C421.825 114.308 421.909 114.02 421.909 113.676V113.652C421.909 113.308 421.821 113.02 421.645 112.788C421.469 112.548 421.249 112.428 420.985 112.428ZM423.169 115.536L426.013 111.6H427.201L423.889 116.076L421.057 120H419.869L423.169 115.536ZM426.061 120.096C425.485 120.096 425.013 119.892 424.645 119.484C424.277 119.068 424.093 118.564 424.093 117.972V117.948C424.093 117.34 424.277 116.832 424.645 116.424C425.021 116.008 425.501 115.8 426.085 115.8C426.661 115.8 427.133 116.008 427.501 116.424C427.869 116.832 428.053 117.332 428.053 117.924V117.948C428.053 118.54 427.865 119.048 427.489 119.472C427.121 119.888 426.645 120.096 426.061 120.096ZM426.085 119.172C426.357 119.172 426.573 119.06 426.733 118.836C426.901 118.604 426.985 118.316 426.985 117.972V117.948C426.985 117.604 426.897 117.316 426.721 117.084C426.545 116.844 426.325 116.724 426.061 116.724C425.789 116.724 425.569 116.84 425.401 117.072C425.241 117.296 425.161 117.58 425.161 117.924V117.948C425.161 118.292 425.249 118.584 425.425 118.824C425.601 119.056 425.821 119.172 426.085 119.172ZM433.303 120V111.6H434.779V118.656H439.195V120H433.303ZM442.377 120.132C441.745 120.132 441.209 119.96 440.769 119.616C440.337 119.272 440.121 118.792 440.121 118.176V118.152C440.121 117.48 440.357 116.972 440.829 116.628C441.309 116.284 441.949 116.112 442.749 116.112C443.333 116.112 443.901 116.2 444.453 116.376V116.22C444.453 115.3 443.929 114.84 442.881 114.84C442.305 114.84 441.701 114.972 441.069 115.236L440.673 114.096C441.481 113.752 442.281 113.58 443.073 113.58C444.017 113.58 444.717 113.816 445.173 114.288C445.629 114.744 445.857 115.396 445.857 116.244V120H444.441V119.208C443.929 119.824 443.241 120.132 442.377 120.132ZM442.785 119.076C443.273 119.076 443.677 118.952 443.997 118.704C444.317 118.448 444.477 118.12 444.477 117.72V117.288C444.045 117.12 443.565 117.036 443.037 117.036C442.565 117.036 442.197 117.128 441.933 117.312C441.677 117.496 441.549 117.756 441.549 118.092V118.116C441.549 118.412 441.665 118.648 441.897 118.824C442.129 118.992 442.425 119.076 442.785 119.076ZM449.78 120.132C449.068 120.132 448.512 119.916 448.112 119.484C447.72 119.044 447.524 118.448 447.524 117.696V113.664H448.976V117.264C448.976 117.76 449.092 118.14 449.324 118.404C449.564 118.668 449.9 118.8 450.332 118.8C450.764 118.8 451.108 118.664 451.364 118.392C451.628 118.112 451.76 117.728 451.76 117.24V113.664H453.224V120H451.76V119.016C451.248 119.76 450.588 120.132 449.78 120.132ZM455.025 120V113.664H456.489V114.636C457.017 113.9 457.677 113.532 458.469 113.532C459.181 113.532 459.733 113.752 460.125 114.192C460.525 114.624 460.725 115.212 460.725 115.956V120H459.273V116.4C459.273 115.904 459.153 115.524 458.913 115.26C458.681 114.988 458.349 114.852 457.917 114.852C457.485 114.852 457.137 114.992 456.873 115.272C456.617 115.552 456.489 115.936 456.489 116.424V120H455.025ZM465.406 120.144C464.47 120.144 463.69 119.828 463.066 119.196C462.442 118.556 462.13 117.78 462.13 116.868V116.844C462.13 115.932 462.442 115.152 463.066 114.504C463.698 113.856 464.486 113.532 465.43 113.532C466.43 113.532 467.274 113.896 467.962 114.624L467.05 115.596C466.546 115.068 466.002 114.804 465.418 114.804C464.898 114.804 464.462 115 464.11 115.392C463.758 115.784 463.582 116.26 463.582 116.82V116.844C463.582 117.412 463.758 117.892 464.11 118.284C464.47 118.676 464.926 118.872 465.478 118.872C466.054 118.872 466.602 118.612 467.122 118.092L467.998 118.956C467.654 119.34 467.282 119.636 466.882 119.844C466.482 120.044 465.99 120.144 465.406 120.144ZM469.322 120V111.24H470.786V114.636C471.314 113.9 471.974 113.532 472.766 113.532C473.478 113.532 474.03 113.752 474.422 114.192C474.822 114.624 475.022 115.212 475.022 115.956V120H473.57V116.4C473.57 115.904 473.45 115.524 473.21 115.26C472.978 114.988 472.646 114.852 472.214 114.852C471.782 114.852 471.434 114.992 471.17 115.272C470.914 115.552 470.786 115.936 470.786 116.424V120H469.322ZM476.763 121.92V113.664H478.227V114.72C478.787 113.928 479.507 113.532 480.387 113.532C481.179 113.532 481.867 113.828 482.451 114.42C483.035 115.012 483.327 115.812 483.327 116.82V116.844C483.327 117.852 483.035 118.652 482.451 119.244C481.875 119.836 481.187 120.132 480.387 120.132C479.507 120.132 478.787 119.76 478.227 119.016V121.92H476.763ZM478.731 118.308C479.091 118.684 479.527 118.872 480.039 118.872C480.551 118.872 480.979 118.688 481.323 118.32C481.675 117.944 481.851 117.452 481.851 116.844V116.82C481.851 116.22 481.675 115.732 481.323 115.356C480.971 114.98 480.543 114.792 480.039 114.792C479.527 114.792 479.091 114.984 478.731 115.368C478.371 115.744 478.191 116.228 478.191 116.82V116.844C478.191 117.436 478.371 117.924 478.731 118.308ZM486.65 120.132C486.018 120.132 485.482 119.96 485.042 119.616C484.61 119.272 484.394 118.792 484.394 118.176V118.152C484.394 117.48 484.63 116.972 485.102 116.628C485.582 116.284 486.222 116.112 487.022 116.112C487.606 116.112 488.174 116.2 488.726 116.376V116.22C488.726 115.3 488.202 114.84 487.154 114.84C486.578 114.84 485.974 114.972 485.342 115.236L484.946 114.096C485.754 113.752 486.554 113.58 487.346 113.58C488.29 113.58 488.99 113.816 489.446 114.288C489.902 114.744 490.13 115.396 490.13 116.244V120H488.714V119.208C488.202 119.824 487.514 120.132 486.65 120.132ZM487.058 119.076C487.546 119.076 487.95 118.952 488.27 118.704C488.59 118.448 488.75 118.12 488.75 117.72V117.288C488.318 117.12 487.838 117.036 487.31 117.036C486.838 117.036 486.47 117.128 486.206 117.312C485.95 117.496 485.822 117.756 485.822 118.092V118.116C485.822 118.412 485.938 118.648 486.17 118.824C486.402 118.992 486.698 119.076 487.058 119.076ZM494.485 120.132C493.693 120.132 493.005 119.836 492.421 119.244C491.837 118.652 491.545 117.852 491.545 116.844V116.82C491.545 115.812 491.833 115.012 492.409 114.42C492.993 113.828 493.685 113.532 494.485 113.532C495.373 113.532 496.093 113.904 496.645 114.648V111.24H498.097V120H496.645V118.944C496.085 119.736 495.365 120.132 494.485 120.132ZM494.833 118.872C495.337 118.872 495.769 118.684 496.129 118.308C496.489 117.924 496.669 117.436 496.669 116.844V116.82C496.669 116.228 496.489 115.744 496.129 115.368C495.769 114.984 495.337 114.792 494.833 114.792C494.321 114.792 493.889 114.98 493.537 115.356C493.185 115.724 493.009 116.212 493.009 116.82V116.844C493.009 117.444 493.185 117.932 493.537 118.308C493.889 118.684 494.321 118.872 494.833 118.872ZM503.685 120V111.6H506.997C507.973 111.6 508.749 111.856 509.325 112.368C509.901 112.88 510.189 113.56 510.189 114.408V114.432C510.189 115.336 509.869 116.04 509.229 116.544C508.597 117.048 507.797 117.3 506.829 117.3H505.161V120H503.685ZM505.161 115.968H506.877C507.429 115.968 507.869 115.828 508.197 115.548C508.525 115.268 508.689 114.908 508.689 114.468V114.444C508.689 113.956 508.529 113.584 508.209 113.328C507.889 113.072 507.445 112.944 506.877 112.944H505.161V115.968ZM513.24 120.132C512.608 120.132 512.072 119.96 511.632 119.616C511.2 119.272 510.984 118.792 510.984 118.176V118.152C510.984 117.48 511.22 116.972 511.692 116.628C512.172 116.284 512.812 116.112 513.612 116.112C514.196 116.112 514.764 116.2 515.316 116.376V116.22C515.316 115.3 514.792 114.84 513.744 114.84C513.168 114.84 512.564 114.972 511.932 115.236L511.536 114.096C512.344 113.752 513.144 113.58 513.936 113.58C514.88 113.58 515.58 113.816 516.036 114.288C516.492 114.744 516.72 115.396 516.72 116.244V120H515.304V119.208C514.792 119.824 514.104 120.132 513.24 120.132ZM513.648 119.076C514.136 119.076 514.54 118.952 514.86 118.704C515.18 118.448 515.34 118.12 515.34 117.72V117.288C514.908 117.12 514.428 117.036 513.9 117.036C513.428 117.036 513.06 117.128 512.796 117.312C512.54 117.496 512.412 117.756 512.412 118.092V118.116C512.412 118.412 512.528 118.648 512.76 118.824C512.992 118.992 513.288 119.076 513.648 119.076ZM518.447 120V113.664H519.911V115.092C520.359 114.012 521.107 113.496 522.155 113.544V115.08H522.071C521.407 115.08 520.879 115.296 520.487 115.728C520.103 116.152 519.911 116.772 519.911 117.588V120H518.447ZM525.54 120.108C524.324 120.108 523.716 119.488 523.716 118.248V114.912H522.912V113.664H523.716V111.924H525.168V113.664H526.872V114.912H525.168V118.02C525.168 118.548 525.428 118.812 525.948 118.812C526.26 118.812 526.56 118.74 526.848 118.596V119.784C526.456 120 526.02 120.108 525.54 120.108ZM528.338 120V113.664H529.802V114.636C530.33 113.9 530.99 113.532 531.782 113.532C532.494 113.532 533.046 113.752 533.438 114.192C533.838 114.624 534.038 115.212 534.038 115.956V120H532.586V116.4C532.586 115.904 532.466 115.524 532.226 115.26C531.994 114.988 531.662 114.852 531.23 114.852C530.798 114.852 530.45 114.992 530.186 115.272C529.93 115.552 529.802 115.936 529.802 116.424V120H528.338ZM538.695 120.144C537.767 120.144 536.991 119.84 536.367 119.232C535.751 118.616 535.443 117.824 535.443 116.856V116.832C535.443 115.904 535.735 115.124 536.319 114.492C536.903 113.852 537.643 113.532 538.539 113.532C539.499 113.532 540.243 113.86 540.771 114.516C541.307 115.164 541.575 115.972 541.575 116.94C541.575 117.02 541.567 117.156 541.551 117.348H536.895C536.975 117.86 537.179 118.256 537.507 118.536C537.835 118.816 538.239 118.956 538.719 118.956C539.335 118.956 539.907 118.704 540.435 118.2L541.287 118.956C540.615 119.748 539.751 120.144 538.695 120.144ZM536.883 116.388H540.135C540.087 115.9 539.923 115.5 539.643 115.188C539.363 114.876 538.991 114.72 538.527 114.72C538.079 114.72 537.707 114.872 537.411 115.176C537.123 115.48 536.947 115.884 536.883 116.388ZM543.021 120V113.664H544.485V115.092C544.933 114.012 545.681 113.496 546.729 113.544V115.08H546.645C545.981 115.08 545.453 115.296 545.061 115.728C544.677 116.152 544.485 116.772 544.485 117.588V120H543.021Z" fill="white"/>
<circle cx="392" cy="144" r="4" fill="#E3D236"/>
<path d="M407.136 148V141.04L405.624 141.46L405.312 140.26L407.58 139.54H408.6V148H407.136ZM413.406 148.144C412.246 148.144 411.218 147.716 410.322 146.86L411.234 145.792C411.954 146.464 412.674 146.8 413.394 146.8C413.898 146.8 414.302 146.668 414.606 146.404C414.91 146.14 415.062 145.788 415.062 145.348V145.324C415.062 144.9 414.902 144.564 414.582 144.316C414.262 144.06 413.842 143.932 413.322 143.932C412.818 143.932 412.302 144.056 411.774 144.304L410.886 143.716L411.126 139.6H416.154V140.92H412.398L412.266 142.876C412.706 142.716 413.15 142.636 413.598 142.636C414.454 142.636 415.154 142.864 415.698 143.32C416.25 143.768 416.526 144.42 416.526 145.276V145.3C416.526 146.156 416.238 146.844 415.662 147.364C415.094 147.884 414.342 148.144 413.406 148.144ZM419.778 143.8C419.202 143.8 418.73 143.596 418.362 143.188C417.994 142.772 417.81 142.268 417.81 141.676V141.652C417.81 141.044 417.994 140.536 418.362 140.128C418.738 139.712 419.218 139.504 419.802 139.504C420.386 139.504 420.858 139.712 421.218 140.128C421.586 140.536 421.77 141.036 421.77 141.628V141.652C421.77 142.244 421.582 142.752 421.206 143.176C420.838 143.592 420.362 143.8 419.778 143.8ZM419.778 140.428C419.506 140.428 419.286 140.544 419.118 140.776C418.958 141 418.878 141.284 418.878 141.628V141.652C418.878 141.996 418.966 142.288 419.142 142.528C419.318 142.76 419.538 142.876 419.802 142.876C420.074 142.876 420.29 142.764 420.45 142.54C420.618 142.308 420.702 142.02 420.702 141.676V141.652C420.702 141.308 420.614 141.02 420.438 140.788C420.262 140.548 420.042 140.428 419.778 140.428ZM421.962 143.536L424.806 139.6H425.994L422.682 144.076L419.85 148H418.662L421.962 143.536ZM424.854 148.096C424.278 148.096 423.806 147.892 423.438 147.484C423.07 147.068 422.886 146.564 422.886 145.972V145.948C422.886 145.34 423.07 144.832 423.438 144.424C423.814 144.008 424.294 143.8 424.878 143.8C425.454 143.8 425.926 144.008 426.294 144.424C426.662 144.832 426.846 145.332 426.846 145.924V145.948C426.846 146.54 426.658 147.048 426.282 147.472C425.914 147.888 425.438 148.096 424.854 148.096ZM424.878 147.172C425.15 147.172 425.366 147.06 425.526 146.836C425.694 146.604 425.778 146.316 425.778 145.972V145.948C425.778 145.604 425.69 145.316 425.514 145.084C425.338 144.844 425.118 144.724 424.854 144.724C424.582 144.724 424.362 144.84 424.194 145.072C424.034 145.296 423.954 145.58 423.954 145.924V145.948C423.954 146.292 424.042 146.584 424.218 146.824C424.394 147.056 424.614 147.172 424.878 147.172ZM434.148 148V140.968H431.472V139.6H438.3V140.968H435.624V148H434.148ZM438.806 148V141.664H440.27V143.092C440.718 142.012 441.466 141.496 442.514 141.544V143.08H442.43C441.766 143.08 441.238 143.296 440.846 143.728C440.462 144.152 440.27 144.772 440.27 145.588V148H438.806ZM446.468 148.144C445.54 148.144 444.764 147.84 444.14 147.232C443.524 146.616 443.216 145.824 443.216 144.856V144.832C443.216 143.904 443.508 143.124 444.092 142.492C444.676 141.852 445.416 141.532 446.312 141.532C447.272 141.532 448.016 141.86 448.544 142.516C449.08 143.164 449.348 143.972 449.348 144.94C449.348 145.02 449.34 145.156 449.324 145.348H444.668C444.748 145.86 444.952 146.256 445.28 146.536C445.608 146.816 446.012 146.956 446.492 146.956C447.108 146.956 447.68 146.704 448.208 146.2L449.06 146.956C448.388 147.748 447.524 148.144 446.468 148.144ZM444.656 144.388H447.908C447.86 143.9 447.696 143.5 447.416 143.188C447.136 142.876 446.764 142.72 446.3 142.72C445.852 142.72 445.48 142.872 445.184 143.176C444.896 143.48 444.72 143.884 444.656 144.388ZM452.631 148.132C451.999 148.132 451.463 147.96 451.023 147.616C450.591 147.272 450.375 146.792 450.375 146.176V146.152C450.375 145.48 450.611 144.972 451.083 144.628C451.563 144.284 452.203 144.112 453.003 144.112C453.587 144.112 454.155 144.2 454.707 144.376V144.22C454.707 143.3 454.183 142.84 453.135 142.84C452.559 142.84 451.955 142.972 451.323 143.236L450.927 142.096C451.735 141.752 452.535 141.58 453.327 141.58C454.271 141.58 454.971 141.816 455.427 142.288C455.883 142.744 456.111 143.396 456.111 144.244V148H454.695V147.208C454.183 147.824 453.495 148.132 452.631 148.132ZM453.039 147.076C453.527 147.076 453.931 146.952 454.251 146.704C454.571 146.448 454.731 146.12 454.731 145.72V145.288C454.299 145.12 453.819 145.036 453.291 145.036C452.819 145.036 452.451 145.128 452.187 145.312C451.931 145.496 451.803 145.756 451.803 146.092V146.116C451.803 146.412 451.919 146.648 452.151 146.824C452.383 146.992 452.679 147.076 453.039 147.076ZM460.021 148.12C459.03 148.12 458.134 147.804 457.333 147.172L457.982 146.188C458.694 146.708 459.386 146.968 460.058 146.968C460.37 146.968 460.61 146.908 460.778 146.788C460.954 146.66 461.042 146.492 461.042 146.284V146.26C461.042 146.148 461.014 146.052 460.958 145.972C460.902 145.892 460.79 145.812 460.622 145.732C460.454 145.652 460.33 145.6 460.25 145.576C460.178 145.544 460.006 145.488 459.734 145.408C459.686 145.392 459.65 145.38 459.626 145.372C459.346 145.3 459.106 145.224 458.906 145.144C458.714 145.064 458.51 144.956 458.294 144.82C458.086 144.676 457.926 144.496 457.814 144.28C457.702 144.064 457.646 143.812 457.646 143.524V143.5C457.646 142.908 457.858 142.436 458.282 142.084C458.714 141.732 459.254 141.556 459.902 141.556C460.726 141.556 461.502 141.796 462.23 142.276L461.654 143.308C460.998 142.908 460.402 142.708 459.866 142.708C459.594 142.708 459.378 142.768 459.218 142.888C459.058 143.008 458.978 143.156 458.978 143.332V143.356C458.978 143.5 459.054 143.632 459.206 143.752C459.358 143.864 459.514 143.952 459.674 144.016C459.842 144.08 460.086 144.16 460.406 144.256C460.686 144.344 460.922 144.432 461.114 144.52C461.306 144.6 461.506 144.712 461.714 144.856C461.93 145 462.094 145.176 462.206 145.384C462.318 145.592 462.374 145.832 462.374 146.104V146.128C462.374 146.768 462.154 147.26 461.714 147.604C461.274 147.948 460.71 148.12 460.021 148.12ZM466.045 148.132C465.333 148.132 464.777 147.916 464.377 147.484C463.985 147.044 463.789 146.448 463.789 145.696V141.664H465.241V145.264C465.241 145.76 465.357 146.14 465.589 146.404C465.829 146.668 466.165 146.8 466.597 146.8C467.029 146.8 467.373 146.664 467.629 146.392C467.893 146.112 468.025 145.728 468.025 145.24V141.664H469.489V148H468.025V147.016C467.513 147.76 466.853 148.132 466.045 148.132ZM471.291 148V141.664H472.755V143.092C473.203 142.012 473.951 141.496 474.999 141.544V143.08H474.915C474.251 143.08 473.723 143.296 473.331 143.728C472.947 144.152 472.755 144.772 472.755 145.588V148H471.291ZM478.996 146.368L480.652 141.664H482.164L479.644 148.168C479.388 148.824 479.104 149.284 478.792 149.548C478.48 149.82 478.068 149.956 477.556 149.956C477.02 149.956 476.52 149.824 476.056 149.56L476.548 148.492C476.852 148.652 477.136 148.732 477.4 148.732C477.616 148.732 477.788 148.676 477.916 148.564C478.052 148.46 478.18 148.276 478.3 148.012L475.66 141.664H477.22L478.996 146.368Z" fill="white"/>
<circle cx="392" cy="172" r="4" fill="#B11ED6"/>
<path d="M408.732 176.144C407.404 176.144 406.332 175.656 405.516 174.68L406.548 173.708C407.172 174.444 407.908 174.812 408.756 174.812C409.172 174.812 409.516 174.696 409.788 174.464C410.068 174.224 410.208 173.916 410.208 173.54V173.516C410.208 173.108 410.036 172.792 409.692 172.568C409.348 172.336 408.876 172.22 408.276 172.22H407.592L407.352 171.296L409.62 168.884H405.984V167.6H411.54V168.704L409.2 171.104C409.912 171.192 410.5 171.428 410.964 171.812C411.436 172.188 411.672 172.736 411.672 173.456V173.48C411.672 174.256 411.4 174.896 410.856 175.4C410.312 175.896 409.604 176.144 408.732 176.144ZM416.007 176.144C414.847 176.144 413.819 175.716 412.923 174.86L413.835 173.792C414.555 174.464 415.275 174.8 415.995 174.8C416.499 174.8 416.903 174.668 417.207 174.404C417.511 174.14 417.663 173.788 417.663 173.348V173.324C417.663 172.9 417.503 172.564 417.183 172.316C416.863 172.06 416.443 171.932 415.923 171.932C415.419 171.932 414.903 172.056 414.375 172.304L413.487 171.716L413.727 167.6H418.755V168.92H414.999L414.867 170.876C415.307 170.716 415.751 170.636 416.199 170.636C417.055 170.636 417.755 170.864 418.299 171.32C418.851 171.768 419.127 172.42 419.127 173.276V173.3C419.127 174.156 418.839 174.844 418.263 175.364C417.695 175.884 416.943 176.144 416.007 176.144ZM422.38 171.8C421.804 171.8 421.332 171.596 420.964 171.188C420.596 170.772 420.412 170.268 420.412 169.676V169.652C420.412 169.044 420.596 168.536 420.964 168.128C421.34 167.712 421.82 167.504 422.404 167.504C422.988 167.504 423.46 167.712 423.82 168.128C424.188 168.536 424.372 169.036 424.372 169.628V169.652C424.372 170.244 424.184 170.752 423.808 171.176C423.44 171.592 422.964 171.8 422.38 171.8ZM422.38 168.428C422.108 168.428 421.888 168.544 421.72 168.776C421.56 169 421.48 169.284 421.48 169.628V169.652C421.48 169.996 421.568 170.288 421.744 170.528C421.92 170.76 422.14 170.876 422.404 170.876C422.676 170.876 422.892 170.764 423.052 170.54C423.22 170.308 423.304 170.02 423.304 169.676V169.652C423.304 169.308 423.216 169.02 423.04 168.788C422.864 168.548 422.644 168.428 422.38 168.428ZM424.564 171.536L427.408 167.6H428.596L425.284 172.076L422.452 176H421.264L424.564 171.536ZM427.456 176.096C426.88 176.096 426.408 175.892 426.04 175.484C425.672 175.068 425.488 174.564 425.488 173.972V173.948C425.488 173.34 425.672 172.832 426.04 172.424C426.416 172.008 426.896 171.8 427.48 171.8C428.056 171.8 428.528 172.008 428.896 172.424C429.264 172.832 429.448 173.332 429.448 173.924V173.948C429.448 174.54 429.26 175.048 428.884 175.472C428.516 175.888 428.04 176.096 427.456 176.096ZM427.48 175.172C427.752 175.172 427.968 175.06 428.128 174.836C428.296 174.604 428.38 174.316 428.38 173.972V173.948C428.38 173.604 428.292 173.316 428.116 173.084C427.94 172.844 427.72 172.724 427.456 172.724C427.184 172.724 426.964 172.84 426.796 173.072C426.636 173.296 426.556 173.58 426.556 173.924V173.948C426.556 174.292 426.644 174.584 426.82 174.824C426.996 175.056 427.216 175.172 427.48 175.172ZM434.697 176V167.6H437.829C439.133 167.6 440.201 168 441.033 168.8C441.873 169.592 442.293 170.584 442.293 171.776V171.8C442.293 173 441.873 174 441.033 174.8C440.201 175.6 439.133 176 437.829 176H434.697ZM437.829 168.944H436.173V174.656H437.829C438.701 174.656 439.405 174.392 439.941 173.864C440.477 173.336 440.745 172.656 440.745 171.824V171.8C440.745 170.968 440.477 170.284 439.941 169.748C439.405 169.212 438.701 168.944 437.829 168.944ZM442.778 176L446.474 167.54H447.842L451.538 176H449.978L449.126 173.972H445.154L444.29 176H442.778ZM445.694 172.664H448.586L447.134 169.304L445.694 172.664ZM456.459 176.144C455.187 176.144 454.139 175.724 453.315 174.884C452.491 174.044 452.079 173.024 452.079 171.824V171.8C452.079 170.6 452.495 169.576 453.327 168.728C454.167 167.88 455.219 167.456 456.483 167.456C457.755 167.456 458.803 167.876 459.627 168.716C460.451 169.556 460.863 170.576 460.863 171.776V171.8C460.863 173 460.443 174.024 459.603 174.872C458.771 175.72 457.723 176.144 456.459 176.144ZM454.431 173.912C454.975 174.488 455.659 174.776 456.483 174.776C457.307 174.776 457.983 174.492 458.511 173.924C459.047 173.356 459.315 172.656 459.315 171.824V171.8C459.315 170.968 459.043 170.264 458.499 169.688C457.963 169.112 457.283 168.824 456.459 168.824C455.635 168.824 454.955 169.108 454.419 169.676C453.891 170.244 453.627 170.944 453.627 171.776V171.8C453.627 172.632 453.895 173.336 454.431 173.912Z" fill="white"/>
<circle cx="392" cy="200" r="4" fill="#E33636"/>
<path d="M408.732 204.144C407.404 204.144 406.332 203.656 405.516 202.68L406.548 201.708C407.172 202.444 407.908 202.812 408.756 202.812C409.172 202.812 409.516 202.696 409.788 202.464C410.068 202.224 410.208 201.916 410.208 201.54V201.516C410.208 201.108 410.036 200.792 409.692 200.568C409.348 200.336 408.876 200.22 408.276 200.22H407.592L407.352 199.296L409.62 196.884H405.984V195.6H411.54V196.704L409.2 199.104C409.912 199.192 410.5 199.428 410.964 199.812C411.436 200.188 411.672 200.736 411.672 201.456V201.48C411.672 202.256 411.4 202.896 410.856 203.4C410.312 203.896 409.604 204.144 408.732 204.144ZM416.007 204.144C414.847 204.144 413.819 203.716 412.923 202.86L413.835 201.792C414.555 202.464 415.275 202.8 415.995 202.8C416.499 202.8 416.903 202.668 417.207 202.404C417.511 202.14 417.663 201.788 417.663 201.348V201.324C417.663 200.9 417.503 200.564 417.183 200.316C416.863 200.06 416.443 199.932 415.923 199.932C415.419 199.932 414.903 200.056 414.375 200.304L413.487 199.716L413.727 195.6H418.755V196.92H414.999L414.867 198.876C415.307 198.716 415.751 198.636 416.199 198.636C417.055 198.636 417.755 198.864 418.299 199.32C418.851 199.768 419.127 200.42 419.127 201.276V201.3C419.127 202.156 418.839 202.844 418.263 203.364C417.695 203.884 416.943 204.144 416.007 204.144ZM422.38 199.8C421.804 199.8 421.332 199.596 420.964 199.188C420.596 198.772 420.412 198.268 420.412 197.676V197.652C420.412 197.044 420.596 196.536 420.964 196.128C421.34 195.712 421.82 195.504 422.404 195.504C422.988 195.504 423.46 195.712 423.82 196.128C424.188 196.536 424.372 197.036 424.372 197.628V197.652C424.372 198.244 424.184 198.752 423.808 199.176C423.44 199.592 422.964 199.8 422.38 199.8ZM422.38 196.428C422.108 196.428 421.888 196.544 421.72 196.776C421.56 197 421.48 197.284 421.48 197.628V197.652C421.48 197.996 421.568 198.288 421.744 198.528C421.92 198.76 422.14 198.876 422.404 198.876C422.676 198.876 422.892 198.764 423.052 198.54C423.22 198.308 423.304 198.02 423.304 197.676V197.652C423.304 197.308 423.216 197.02 423.04 196.788C422.864 196.548 422.644 196.428 422.38 196.428ZM424.564 199.536L427.408 195.6H428.596L425.284 200.076L422.452 204H421.264L424.564 199.536ZM427.456 204.096C426.88 204.096 426.408 203.892 426.04 203.484C425.672 203.068 425.488 202.564 425.488 201.972V201.948C425.488 201.34 425.672 200.832 426.04 200.424C426.416 200.008 426.896 199.8 427.48 199.8C428.056 199.8 428.528 200.008 428.896 200.424C429.264 200.832 429.448 201.332 429.448 201.924V201.948C429.448 202.54 429.26 203.048 428.884 203.472C428.516 203.888 428.04 204.096 427.456 204.096ZM427.48 203.172C427.752 203.172 427.968 203.06 428.128 202.836C428.296 202.604 428.38 202.316 428.38 201.972V201.948C428.38 201.604 428.292 201.316 428.116 201.084C427.94 200.844 427.72 200.724 427.456 200.724C427.184 200.724 426.964 200.84 426.796 201.072C426.636 201.296 426.556 201.58 426.556 201.924V201.948C426.556 202.292 426.644 202.584 426.82 202.824C426.996 203.056 427.216 203.172 427.48 203.172ZM436.749 204V196.968H434.073V195.6H440.901V196.968H438.225V204H436.749ZM443.82 204.144C442.892 204.144 442.116 203.84 441.492 203.232C440.876 202.616 440.568 201.824 440.568 200.856V200.832C440.568 199.904 440.86 199.124 441.444 198.492C442.028 197.852 442.768 197.532 443.664 197.532C444.624 197.532 445.368 197.86 445.896 198.516C446.432 199.164 446.7 199.972 446.7 200.94C446.7 201.02 446.692 201.156 446.676 201.348H442.02C442.1 201.86 442.304 202.256 442.632 202.536C442.96 202.816 443.364 202.956 443.844 202.956C444.46 202.956 445.032 202.704 445.56 202.2L446.412 202.956C445.74 203.748 444.876 204.144 443.82 204.144ZM442.008 200.388H445.26C445.212 199.9 445.048 199.5 444.768 199.188C444.488 198.876 444.116 198.72 443.652 198.72C443.204 198.72 442.832 198.872 442.536 199.176C442.248 199.48 442.072 199.884 442.008 200.388ZM449.982 204.132C449.35 204.132 448.814 203.96 448.374 203.616C447.942 203.272 447.726 202.792 447.726 202.176V202.152C447.726 201.48 447.962 200.972 448.434 200.628C448.914 200.284 449.554 200.112 450.354 200.112C450.938 200.112 451.506 200.2 452.058 200.376V200.22C452.058 199.3 451.534 198.84 450.486 198.84C449.91 198.84 449.306 198.972 448.674 199.236L448.278 198.096C449.086 197.752 449.886 197.58 450.678 197.58C451.622 197.58 452.322 197.816 452.778 198.288C453.234 198.744 453.462 199.396 453.462 200.244V204H452.046V203.208C451.534 203.824 450.846 204.132 449.982 204.132ZM450.39 203.076C450.878 203.076 451.282 202.952 451.602 202.704C451.922 202.448 452.082 202.12 452.082 201.72V201.288C451.65 201.12 451.17 201.036 450.642 201.036C450.17 201.036 449.802 201.128 449.538 201.312C449.282 201.496 449.154 201.756 449.154 202.092V202.116C449.154 202.412 449.27 202.648 449.502 202.824C449.734 202.992 450.03 203.076 450.39 203.076ZM455.189 204V197.664H456.653V198.624C457.181 197.896 457.825 197.532 458.585 197.532C459.481 197.532 460.113 197.904 460.481 198.648C461.049 197.904 461.761 197.532 462.617 197.532C463.313 197.532 463.857 197.744 464.249 198.168C464.641 198.592 464.837 199.188 464.837 199.956V204H463.385V200.4C463.385 199.896 463.273 199.512 463.049 199.248C462.825 198.984 462.509 198.852 462.101 198.852C461.693 198.852 461.365 198.992 461.117 199.272C460.869 199.544 460.745 199.928 460.745 200.424V204H459.293V200.388C459.293 199.892 459.181 199.512 458.957 199.248C458.733 198.984 458.417 198.852 458.009 198.852C457.601 198.852 457.273 198.996 457.025 199.284C456.777 199.564 456.653 199.944 456.653 200.424V204H455.189Z" fill="white"/>
</g>
<defs>
<radialGradient id="paint0_radial_119_3433" cx="0" cy="0" r="1" gradientUnits="userSpaceOnUse" gradientTransform="translate(305.46 309.46) rotate(-135) scale(367.583)">
<stop stop-color="#42A4FF"/>
<stop offset="0.540112" stop-color="#A00DFB"/>
<stop offset="1" stop-color="#FC05D4"/>
</radialGradient>
<radialGradient id="paint1_radial_119_3433" cx="0" cy="0" r="1" gradientUnits="userSpaceOnUse" gradientTransform="translate(311.368 315.368) rotate(-135) scale(384.292)">
<stop stop-color="#00F5D8"/>
<stop offset="0.25" stop-color="#0ECDF2"/>
<stop offset="0.505208" stop-color="#0094FF"/>
<stop offset="0.744792" stop-color="#5236FF"/>
<stop offset="1" stop-color="#CC00FF"/>
</radialGradient>
<clipPath id="clip0_119_3433">
<rect width="584" height="228" fill="white"/>
</clipPath>
</defs>
</svg>
